<?xml version="1.0" encoding="UTF-8" standalone="no"?>
<!DOCTYPE svg PUBLIC "-//W3C//DTD SVG 1.1//EN"
 "http://www.w3.org/Graphics/SVG/1.1/DTD/svg11.dtd">
<!-- Generated by graphviz version 2.40.1 (20161225.0304)
 -->
<!-- Title: G Pages: 1 -->
<svg width="373pt" height="455pt"
 viewBox="0.00 0.00 373.00 455.00" xmlns="http://www.w3.org/2000/svg" xmlns:xlink="http://www.w3.org/1999/xlink">
<g id="graph0" class="graph" transform="scale(1 1) rotate(0) translate(4 451)">
<title>G</title>
<polygon fill="#ffffff" stroke="transparent" points="-4,4 -4,-451 369,-451 369,4 -4,4"/>
<g id="clust2" class="cluster">
<title>cluster_1</title>
<polygon fill="#c0c0c0" stroke="#000000" points="65.5,-216 65.5,-439 140.5,-439 140.5,-216 65.5,-216"/>
<text text-anchor="middle" x="103" y="-423.8" font-family="Times,serif" font-size="14.00" fill="#000000">struct itab</text>
</g>
<g id="clust3" class="cluster">
<title>cluster_2</title>
<polygon fill="#ff83fa" stroke="#000000" points="256.5,-8 256.5,-87 335.5,-87 335.5,-8 256.5,-8"/>
<text text-anchor="middle" x="296" y="-71.8" font-family="Times,serif" font-size="14.00" fill="#000000">0xf7fc4380</text>
</g>
<g id="clust4" class="cluster">
<title>cluster_3</title>
<polygon fill="#add8e6" stroke="#000000" points="234,-95 234,-296 357,-296 357,-95 234,-95"/>
<text text-anchor="middle" x="295.5" y="-280.8" font-family="Times,serif" font-size="14.00" fill="#000000">struct _type</text>
</g>
<!-- itable -->
<g id="node1" class="node">
<title>itable</title>
<polygon fill="none" stroke="#000000" points="73.5,-224 73.5,-408 132.5,-408 132.5,-224 73.5,-224"/>
<text text-anchor="middle" x="103" y="-392.8" font-family="Times,serif" font-size="14.00" fill="#000000">*inter</text>
<polyline fill="none" stroke="#000000" points="73.5,-385 132.5,-385 "/>
<text text-anchor="middle" x="103" y="-369.8" font-family="Times,serif" font-size="14.00" fill="#000000">*_type</text>
<polyline fill="none" stroke="#000000" points="73.5,-362 132.5,-362 "/>
<text text-anchor="middle" x="103" y="-346.8" font-family="Times,serif" font-size="14.00" fill="#000000">hash</text>
<polyline fill="none" stroke="#000000" points="73.5,-339 132.5,-339 "/>
<text text-anchor="middle" x="103" y="-323.8" font-family="Times,serif" font-size="14.00" fill="#000000">...</text>
<polyline fill="none" stroke="#000000" points="73.5,-316 132.5,-316 "/>
<text text-anchor="middle" x="103" y="-300.8" font-family="Times,serif" font-size="14.00" fill="#000000">*fun[0]</text>
<polyline fill="none" stroke="#000000" points="73.5,-293 132.5,-293 "/>
<text text-anchor="middle" x="103" y="-277.8" font-family="Times,serif" font-size="14.00" fill="#000000">*fun[1]</text>
<polyline fill="none" stroke="#000000" points="73.5,-270 132.5,-270 "/>
<text text-anchor="middle" x="103" y="-254.8" font-family="Times,serif" font-size="14.00" fill="#000000">...</text>
<polyline fill="none" stroke="#000000" points="73.5,-247 132.5,-247 "/>
<text text-anchor="middle" x="103" y="-231.8" font-family="Times,serif" font-size="14.00" fill="#000000">*fun[n]</text>
</g>
<!-- type -->
<g id="node3" class="node">
<title>type</title>
<polygon fill="none" stroke="#000000" points="242,-103.5 242,-264.5 349,-264.5 349,-103.5 242,-103.5"/>
<text text-anchor="middle" x="295.5" y="-249.3" font-family="Times,serif" font-size="14.00" fill="#000000">size</text>
<polyline fill="none" stroke="#000000" points="242,-241.5 349,-241.5 "/>
<text text-anchor="middle" x="295.5" y="-226.3" font-family="Times,serif" font-size="14.00" fill="#000000">...</text>
<polyline fill="none" stroke="#000000" points="242,-218.5 349,-218.5 "/>
<text text-anchor="middle" x="295.5" y="-203.3" font-family="Times,serif" font-size="14.00" fill="#000000">kind</text>
<polyline fill="none" stroke="#000000" points="242,-195.5 349,-195.5 "/>
<text text-anchor="middle" x="295.5" y="-180.3" font-family="Times,serif" font-size="14.00" fill="#000000">...</text>
<polyline fill="none" stroke="#000000" points="242,-172.5 349,-172.5 "/>
<text text-anchor="middle" x="295.5" y="-157.3" font-family="Times,serif" font-size="14.00" fill="#000000">str (name)</text>
<polyline fill="none" stroke="#000000" points="242,-149.5 349,-149.5 "/>
<text text-anchor="middle" x="295.5" y="-134.3" font-family="Times,serif" font-size="14.00" fill="#000000">ptr</text>
<polyline fill="none" stroke="#000000" points="242,-126.5 349,-126.5 "/>
<text text-anchor="middle" x="295.5" y="-111.3" font-family="Times,serif" font-size="14.00" fill="#000000">[]fields (structs)</text>
</g>
<!-- itable&#45;&gt;type -->
<g id="edge5" class="edge">
<title>itable:type&#45;&gt;type</title>
<path fill="none" stroke="#000000" d="M133,-374C190.615,-374 232.1706,-322.9182 258.8308,-273.7274"/>
<polygon fill="#000000" stroke="#000000" points="262.0853,-275.0579 263.636,-264.5771 255.8879,-271.8033 262.0853,-275.0579"/>
</g>
<!-- object -->
<g id="node2" class="node">
<title>object</title>
<polygon fill="none" stroke="#000000" points="264.5,-17 264.5,-55 326.5,-55 326.5,-17 264.5,-17"/>
<text text-anchor="middle" x="295.5" y="-39.8" font-family="Times,serif" font-size="14.00" fill="#000000">runtime</text>
<text text-anchor="middle" x="295.5" y="-24.8" font-family="Times,serif" font-size="14.00" fill="#000000">object</text>
</g>
<!-- reflect.Value.Pointer() -->
<g id="node4" class="node">
<title>reflect.Value.Pointer()</title>
<text text-anchor="middle" x="103" y="-32.3" font-family="Courier,monospace" font-size="14.00" fill="#000000">reflect.Value.Pointer()</text>
</g>
<!-- reflect.Value.Pointer()&#45;&gt;object -->
<g id="edge1" class="edge">
<title>reflect.Value.Pointer()&#45;&gt;object:ptr</title>
<path fill="none" stroke="#000000" d="M206.0126,-36C222.9662,-36 239.6387,-36 253.912,-36"/>
<polygon fill="#000000" stroke="#000000" points="254.3242,-39.5001 264.3241,-36 254.3241,-32.5001 254.3242,-39.5001"/>
</g>
<!-- reflect.Value.Kind() -->
<g id="node5" class="node">
<title>reflect.Value.Kind()</title>
<text text-anchor="middle" x="103" y="-183.3" font-family="Courier,monospace" font-size="14.00" fill="#000000">reflect.Value.Kind()</text>
</g>
<!-- reflect.Value.Kind()&#45;&gt;type -->
<g id="edge2" class="edge">
<title>reflect.Value.Kind()&#45;&gt;type:kind</title>
<path fill="none" stroke="#000000" d="M194.3669,-203.9624C206.607,-205.3892 219.1479,-206.4406 231.3471,-206.8324"/>
<polygon fill="#000000" stroke="#000000" points="231.4435,-210.3343 241.5,-207 231.5592,-203.3353 231.4435,-210.3343"/>
</g>
<!-- reflect.Value.Field() -->
<g id="node6" class="node">
<title>reflect.Value.Field()</title>
<text text-anchor="middle" x="103" y="-98.3" font-family="Courier,monospace" font-size="14.00" fill="#000000">reflect.Value.Field()</text>
</g>
<!-- reflect.Value.Field()&#45;&gt;object -->
<g id="edge4" class="edge">
<title>reflect.Value.Field()&#45;&gt;object:ptr</title>
<path fill="none" stroke="#000000" d="M155.6015,-83.9652C186.7697,-73.279 225.6854,-59.9364 254.5543,-50.0385"/>
<polygon fill="#000000" stroke="#000000" points="255.9931,-53.2453 264.3174,-46.6912 253.7228,-46.6237 255.9931,-53.2453"/>
</g>
<!-- reflect.Value.Field()&#45;&gt;type -->
<g id="edge3" class="edge">
<title>reflect.Value.Field()&#45;&gt;type:fields</title>
<path fill="none" stroke="#000000" d="M198.2555,-113.3005C209.2191,-114.0827 220.3562,-114.6554 231.2037,-114.8869"/>
<polygon fill="#000000" stroke="#000000" points="231.4621,-118.3898 241.5,-115 231.5391,-111.3903 231.4621,-118.3898"/>
</g>
</g>
</svg>
