<?xml version="1.0" encoding="UTF-8"?>
<!DOCTYPE svg PUBLIC "-//W3C//DTD SVG 1.1//EN" "http://www.w3.org/Graphics/SVG/1.1/DTD/svg11.dtd">
<svg width="111mm" height="76mm" viewBox="0 0 11100 7600" version="1.1" xmlns="http://www.w3.org/2000/svg" stroke-width="28.222" stroke-linejoin="round" xml:space="preserve">
 <path fill="rgb(255,255,255)" stroke="none" d="M 5574,7555 L 12,7555 12,0 11135,0 11135,7555 5574,7555 Z"/>
 <path fill="none" stroke="rgb(179,179,179)" stroke-linejoin="round" d="M 6104,5800 L 2076,5800 2076,1424 10133,1424 10133,5800 6104,5800 Z"/>
 <path fill="none" stroke="rgb(179,179,179)" stroke-linejoin="round" d="M 10133,5799 L 2076,5799"/>
 <path fill="none" stroke="rgb(179,179,179)" stroke-linejoin="round" d="M 10133,4340 L 2076,4340"/>
 <path fill="none" stroke="rgb(179,179,179)" stroke-linejoin="round" d="M 10133,2881 L 2076,2881"/>
 <path fill="none" stroke="rgb(179,179,179)" stroke-linejoin="round" d="M 10133,1422 L 2076,1422"/>
 <path fill="none" stroke="rgb(179,179,179)" stroke-linejoin="round" d="M 2076,5949 L 2076,5799"/>
 <path fill="none" stroke="rgb(179,179,179)" stroke-linejoin="round" d="M 2076,5949 L 2076,5799"/>
 <path fill="none" stroke="rgb(179,179,179)" stroke-linejoin="round" d="M 4762,5949 L 4762,5799"/>
 <path fill="none" stroke="rgb(179,179,179)" stroke-linejoin="round" d="M 4762,5949 L 4762,5799"/>
 <path fill="none" stroke="rgb(179,179,179)" stroke-linejoin="round" d="M 7447,5949 L 7447,5799"/>
 <path fill="none" stroke="rgb(179,179,179)" stroke-linejoin="round" d="M 7447,5949 L 7447,5799"/>
 <path fill="none" stroke="rgb(179,179,179)" stroke-linejoin="round" d="M 10133,5949 L 10133,5799"/>
 <path fill="none" stroke="rgb(179,179,179)" stroke-linejoin="round" d="M 10133,5949 L 10133,5799"/>
 <path fill="none" stroke="rgb(179,179,179)" stroke-linejoin="round" d="M 2076,5799 L 10133,5799"/>
 <path fill="none" stroke="rgb(179,179,179)" stroke-linejoin="round" d="M 1926,5799 L 2076,5799"/>
 <path fill="none" stroke="rgb(179,179,179)" stroke-linejoin="round" d="M 1926,5799 L 2076,5799"/>
 <path fill="none" stroke="rgb(179,179,179)" stroke-linejoin="round" d="M 1926,4340 L 2076,4340"/>
 <path fill="none" stroke="rgb(179,179,179)" stroke-linejoin="round" d="M 1926,4340 L 2076,4340"/>
 <path fill="none" stroke="rgb(179,179,179)" stroke-linejoin="round" d="M 1926,2881 L 2076,2881"/>
 <path fill="none" stroke="rgb(179,179,179)" stroke-linejoin="round" d="M 1926,2881 L 2076,2881"/>
 <path fill="none" stroke="rgb(179,179,179)" stroke-linejoin="round" d="M 1926,1423 L 2076,1423"/>
 <path fill="none" stroke="rgb(179,179,179)" stroke-linejoin="round" d="M 1926,1423 L 2076,1423"/>
 <path fill="none" stroke="rgb(179,179,179)" stroke-linejoin="round" d="M 2076,5799 L 2076,1423"/>
 <path fill="none" stroke="rgb(0,69,134)" stroke-width="80" stroke-linejoin="round" d="M 9245,3887 L 8916,3543 8742,3625 8722,3620 8556,3740 8372,4106 8343,3850 8222,3957 8192,4066 8167,4225 8111,3862 7984,4230 7926,4093 7791,4043 7786,3957 7776,4235 7690,4208 7680,4030 7668,4539 7666,4326 7651,4268 7641,4600 7615,3999 7601,4790 7554,4355 7548,4138 7547,4461 7531,4929 7490,4311 7434,3724 7424,5284 7386,4417 7365,4218 7344,4866 7307,4491 7298,4823 7263,4394 7247,4548 7224,5029 7221,4001 7220,4380 7210,4839 7196,4624 7190,4215 7136,4494 7122,5156 7101,4652 7097,3831 7072,4529 7048,5155 7034,4690 7034,4964 7033,4430 7006,4618 6991,4455 6990,4681 6978,5024 6974,4865 6950,4860 6932,4736 6926,5477 6914,4249 6907,4893 6905,5799"/>
 <path fill="none" stroke="rgb(0,69,134)" stroke-width="80" stroke-linejoin="round" d="M 6904,5799 L 6898,4111 6879,4295 6865,4615 6862,4718 6844,5144 6840,5029 6832,4940 6821,4539 6818,4591 6791,3685 6739,4755 6726,4800 6698,5056 6680,5165 6675,5146 6671,5397 6659,5701 6656,5206 6626,4890 6624,4757 6621,4939 6619,4874 6616,5340 6609,5747 6609,5112 6608,4998 6600,5799"/>
 <path fill="none" stroke="rgb(0,69,134)" stroke-width="80" stroke-linejoin="round" d="M 6575,5799 L 6571,4857 6565,5157 6563,4621 6554,4739 6547,4692 6543,5186 6525,4839 6495,5127 6494,4726 6494,5799"/>
 <path fill="none" stroke="rgb(0,69,134)" stroke-width="80" stroke-linejoin="round" d="M 6493,5799 L 6490,4528 6487,4779 6471,3914 6469,5039 6468,5378 6461,5799"/>
 <path fill="none" stroke="rgb(0,69,134)" stroke-width="80" stroke-linejoin="round" d="M 6459,5799 L 6455,5392 6452,5279 6450,4860 6449,4487 6447,5407 6431,5799"/>
 <path fill="none" stroke="rgb(0,69,134)" stroke-width="80" stroke-linejoin="round" d="M 6421,5799 L 6415,4762 6408,4840 6397,4720 6382,5533 6376,5087 6359,3961 6357,5799"/>
 <path fill="none" stroke="rgb(0,69,134)" stroke-width="80" stroke-linejoin="round" d="M 6356,5799 L 6350,4828 6317,5044 6313,5057 6301,4863 6298,5183 6282,4998 6281,5098 6281,4410 6277,5325 6270,5754 6264,4721 6264,4811 6262,4948 6259,5202 6258,5268 6252,5103 6252,5361 6248,4418 6245,4969 6232,3749 6226,4922 6218,3738 6217,5790 6205,4103 6201,5799"/>
 <path fill="none" stroke="rgb(0,69,134)" stroke-width="80" stroke-linejoin="round" d="M 6197,5799 L 6186,5019 6181,5118 6180,4857 6178,5436 6174,5313 6169,5254 6169,5799"/>
 <path fill="none" stroke="rgb(0,69,134)" stroke-width="80" stroke-linejoin="round" d="M 6164,5799 L 6155,4804 6152,4738 6151,4487 6151,5799"/>
 <path fill="none" stroke="rgb(0,69,134)" stroke-width="80" stroke-linejoin="round" d="M 6148,5799 L 6148,5451 6145,5191 6140,4825 6131,4778 6127,4885 6126,4140 6123,5378 6123,5799"/>
 <path fill="none" stroke="rgb(0,69,134)" stroke-width="80" stroke-linejoin="round" d="M 6122,5799 L 6120,4179 6117,4536 6110,5635 6101,3255 6092,5200 6081,5211 6070,4977 6069,5799"/>
 <path fill="none" stroke="rgb(0,69,134)" stroke-width="80" stroke-linejoin="round" d="M 6069,5799 L 6068,5113 6067,5225 6060,5065 6055,2757 6047,5799"/>
 <path fill="none" stroke="rgb(0,69,134)" stroke-width="80" stroke-linejoin="round" d="M 6037,5799 L 6037,5752 6033,5186 6033,5799"/>
 <path fill="none" stroke="rgb(0,69,134)" stroke-width="80" stroke-linejoin="round" d="M 6031,5799 L 6028,5383 6027,5799"/>
 <path fill="none" stroke="rgb(0,69,134)" stroke-width="80" stroke-linejoin="round" d="M 6026,5799 L 6025,5625 6022,4753 6020,5057 6017,5588 6016,5799"/>
 <path fill="none" stroke="rgb(0,69,134)" stroke-width="80" stroke-linejoin="round" d="M 6013,5799 L 6011,4959 6001,4783 5991,5059 5981,5014 5968,4841 5965,4976 5954,4883 5952,5445 5950,5287 5949,4268 5948,4895 5947,5799"/>
 <path fill="none" stroke="rgb(0,69,134)" stroke-width="80" stroke-linejoin="round" d="M 5946,5799 L 5943,4893 5922,5194 5915,5784 5910,4888 5895,4558 5891,3798 5884,5799"/>
 <path fill="none" stroke="rgb(0,69,134)" stroke-width="80" stroke-linejoin="round" d="M 5881,5799 L 5879,5607 5877,5400 5872,5131 5870,4922 5867,5067 5865,4616 5859,5300 5858,5506 5852,5554 5851,5433 5845,5480 5839,5799"/>
 <path fill="none" stroke="rgb(0,69,134)" stroke-width="80" stroke-linejoin="round" d="M 5835,5799 L 5833,4128 5832,5799"/>
 <path fill="none" stroke="rgb(0,69,134)" stroke-width="80" stroke-linejoin="round" d="M 5831,5799 L 5829,4625 5829,5039 5827,5442 5826,5242 5826,4749 5821,4553 5811,5489 5811,5799"/>
 <path fill="none" stroke="rgb(0,69,134)" stroke-width="80" stroke-linejoin="round" d="M 5810,5799 L 5808,4706 5806,5275 5804,5502 5796,5799"/>
 <path fill="none" stroke="rgb(0,69,134)" stroke-width="80" stroke-linejoin="round" d="M 5792,5799 L 5788,5196 5787,5615 5787,5799"/>
 <path fill="none" stroke="rgb(0,69,134)" stroke-width="80" stroke-linejoin="round" d="M 5771,5799 L 5770,5179 5765,5555 5761,5114 5753,5799"/>
 <path fill="none" stroke="rgb(0,69,134)" stroke-width="80" stroke-linejoin="round" d="M 5752,5799 L 5752,5205 5751,5317 5746,5703 5736,5186 5731,3347 5719,5799"/>
 <path fill="none" stroke="rgb(0,69,134)" stroke-width="80" stroke-linejoin="round" d="M 5718,5799 L 5712,4866 5711,5799"/>
 <path fill="none" stroke="rgb(0,69,134)" stroke-width="80" stroke-linejoin="round" d="M 5707,5799 L 5703,5243 5698,4448 5695,4486 5687,3519 5687,5381 5682,5568 5679,5527 5676,5799"/>
 <path fill="none" stroke="rgb(0,69,134)" stroke-width="80" stroke-linejoin="round" d="M 5674,5799 L 5672,5157 5669,5393 5664,5566 5664,5799"/>
 <path fill="none" stroke="rgb(0,69,134)" stroke-width="80" stroke-linejoin="round" d="M 5662,5799 L 5662,5245 5662,5799 Z"/>
 <path fill="none" stroke="rgb(0,69,134)" stroke-width="80" stroke-linejoin="round" d="M 5660,5799 L 5660,5110 5651,5163 5650,4562 5645,4646 5644,5244 5640,5799"/>
 <path fill="none" stroke="rgb(0,69,134)" stroke-width="80" stroke-linejoin="round" d="M 5639,5799 L 5638,5602 5637,5799"/>
 <path fill="none" stroke="rgb(0,69,134)" stroke-width="80" stroke-linejoin="round" d="M 5634,5799 L 5633,5357 5626,4514 5622,4651 5622,5512 5621,5799"/>
 <path fill="none" stroke="rgb(0,69,134)" stroke-width="80" stroke-linejoin="round" d="M 5614,5799 L 5613,5461 5611,5799"/>
 <path fill="none" stroke="rgb(0,69,134)" stroke-width="80" stroke-linejoin="round" d="M 5610,5799 L 5610,4630 5608,5799"/>
 <path fill="none" stroke="rgb(0,69,134)" stroke-width="80" stroke-linejoin="round" d="M 5607,5799 L 5607,5363 5604,5096 5600,5032 5596,4736 5592,5218 5591,2615 5588,4948 5587,5341 5586,5721 5585,5799"/>
 <path fill="none" stroke="rgb(0,69,134)" stroke-width="80" stroke-linejoin="round" d="M 5584,5799 L 5584,5649 5582,5799"/>
 <path fill="none" stroke="rgb(0,69,134)" stroke-width="80" stroke-linejoin="round" d="M 5580,5799 L 5579,5639 5572,4470 5565,3452 5565,5060 5565,5369 5557,5799"/>
 <path fill="none" stroke="rgb(0,69,134)" stroke-width="80" stroke-linejoin="round" d="M 5555,5799 L 5554,4335 5553,5799"/>
 <path fill="none" stroke="rgb(0,69,134)" stroke-width="80" stroke-linejoin="round" d="M 5553,5799 L 5552,5519 5548,5213 5546,5356 5546,5639 5546,5799"/>
 <path fill="none" stroke="rgb(0,69,134)" stroke-width="80" stroke-linejoin="round" d="M 5541,5799 L 5533,4969 5531,5799"/>
 <path fill="none" stroke="rgb(0,69,134)" stroke-width="80" stroke-linejoin="round" d="M 5526,5799 L 5522,5411 5521,5112 5519,5687 5519,5799"/>
 <path fill="none" stroke="rgb(0,69,134)" stroke-width="80" stroke-linejoin="round" d="M 5517,5799 L 5515,5696 5515,5799"/>
 <path fill="none" stroke="rgb(0,69,134)" stroke-width="80" stroke-linejoin="round" d="M 5511,5799 L 5511,5467 5508,5605 5508,5799"/>
 <path fill="none" stroke="rgb(0,69,134)" stroke-width="80" stroke-linejoin="round" d="M 5503,5799 L 5503,4981 5499,5472 5497,5627 5494,5386 5491,5333 5483,5797 5483,5799"/>
 <path fill="none" stroke="rgb(0,69,134)" stroke-width="80" stroke-linejoin="round" d="M 5476,5799 L 5473,4748 5471,5687 5469,5323 5468,5799"/>
 <path fill="none" stroke="rgb(0,69,134)" stroke-width="80" stroke-linejoin="round" d="M 5466,5799 L 5466,5209 5465,4803 5462,3915 5455,5253 5453,5365 5447,5143 5447,5570 5439,5352 5438,5249 5437,5799"/>
 <path fill="none" stroke="rgb(0,69,134)" stroke-width="80" stroke-linejoin="round" d="M 5434,5799 L 5427,4469 5422,5110 5419,5799"/>
 <path fill="none" stroke="rgb(0,69,134)" stroke-width="80" stroke-linejoin="round" d="M 5411,5799 L 5404,5058 5400,5206 5399,5501 5399,5799"/>
 <path fill="none" stroke="rgb(0,69,134)" stroke-width="80" stroke-linejoin="round" d="M 5398,5799 L 5398,5411 5393,5288 5393,5799"/>
 <path fill="none" stroke="rgb(0,69,134)" stroke-width="80" stroke-linejoin="round" d="M 5393,5799 L 5391,5583 5391,5370 5382,5107 5382,5529 5381,5799"/>
 <path fill="none" stroke="rgb(0,69,134)" stroke-width="80" stroke-linejoin="round" d="M 5373,5799 L 5370,5287 5368,5799"/>
 <path fill="none" stroke="rgb(0,69,134)" stroke-width="80" stroke-linejoin="round" d="M 5365,5799 L 5364,4749 5363,5799"/>
 <path fill="none" stroke="rgb(0,69,134)" stroke-width="80" stroke-linejoin="round" d="M 5344,5799 L 5344,5792 5341,5799"/>
 <path fill="none" stroke="rgb(0,69,134)" stroke-width="80" stroke-linejoin="round" d="M 5331,5799 L 5328,4714 5325,5772 5324,5320 5323,4795 5321,5379 5321,5799"/>
 <path fill="none" stroke="rgb(0,69,134)" stroke-width="80" stroke-linejoin="round" d="M 5319,5799 L 5318,5735 5318,5799"/>
 <path fill="none" stroke="rgb(0,69,134)" stroke-width="80" stroke-linejoin="round" d="M 5314,5799 L 5314,5185 5312,3020 5311,5474 5310,5792 5310,5799"/>
 <path fill="none" stroke="rgb(0,69,134)" stroke-width="80" stroke-linejoin="round" d="M 5305,5799 L 5303,5099 5300,5799"/>
 <path fill="none" stroke="rgb(0,69,134)" stroke-width="80" stroke-linejoin="round" d="M 5294,5799 L 5291,5353 5291,5799"/>
 <path fill="none" stroke="rgb(0,69,134)" stroke-width="80" stroke-linejoin="round" d="M 5285,5799 L 5279,5295 5277,5799"/>
 <path fill="none" stroke="rgb(0,69,134)" stroke-width="80" stroke-linejoin="round" d="M 5277,5799 L 5273,5552 5268,5168 5265,5071 5263,5799"/>
 <path fill="none" stroke="rgb(0,69,134)" stroke-width="80" stroke-linejoin="round" d="M 5261,5799 L 5259,4693 5257,5474 5253,5799"/>
 <path fill="none" stroke="rgb(0,69,134)" stroke-width="80" stroke-linejoin="round" d="M 5252,5799 L 5251,5094 5251,5043 5250,5685 5242,5445 5238,5334 5236,5799"/>
 <path fill="none" stroke="rgb(0,69,134)" stroke-width="80" stroke-linejoin="round" d="M 5229,5799 L 5228,5171 5228,5799"/>
 <path fill="none" stroke="rgb(0,69,134)" stroke-width="80" stroke-linejoin="round" d="M 5223,5799 L 5222,5498 5221,5472 5213,5566 5213,5799"/>
 <path fill="none" stroke="rgb(0,69,134)" stroke-width="80" stroke-linejoin="round" d="M 5212,5799 L 5212,5743 5211,5799"/>
 <path fill="none" stroke="rgb(0,69,134)" stroke-width="80" stroke-linejoin="round" d="M 5209,5799 L 5209,4718 5206,5025 5206,5799"/>
 <path fill="none" stroke="rgb(0,69,134)" stroke-width="80" stroke-linejoin="round" d="M 5205,5799 L 5205,5692 5203,4700 5203,5588 5200,5230 5197,5651 5196,5799"/>
 <path fill="none" stroke="rgb(0,69,134)" stroke-width="80" stroke-linejoin="round" d="M 5194,5799 L 5193,4552 5188,5559 5185,5696 5185,4604 5185,5799"/>
 <path fill="none" stroke="rgb(0,69,134)" stroke-width="80" stroke-linejoin="round" d="M 5182,5799 L 5180,3156 5179,5369 5179,5733 5170,5144 5165,4650 5156,5681 5151,5513 5146,5476 5146,5799"/>
 <path fill="none" stroke="rgb(0,69,134)" stroke-width="80" stroke-linejoin="round" d="M 5142,5799 L 5140,5511 5140,3451 5136,5306 5136,5799"/>
 <path fill="none" stroke="rgb(0,69,134)" stroke-width="80" stroke-linejoin="round" d="M 5134,5799 L 5132,4845 5132,4502 5130,5210 5130,5799"/>
 <path fill="none" stroke="rgb(0,69,134)" stroke-width="80" stroke-linejoin="round" d="M 5128,5799 L 5127,5121 5126,4412 5123,5799"/>
 <path fill="none" stroke="rgb(0,69,134)" stroke-width="80" stroke-linejoin="round" d="M 5118,5799 L 5118,5658 5117,5799"/>
 <path fill="none" stroke="rgb(0,69,134)" stroke-width="80" stroke-linejoin="round" d="M 5114,5799 L 5112,5397 5110,5799"/>
 <path fill="none" stroke="rgb(0,69,134)" stroke-width="80" stroke-linejoin="round" d="M 5107,5799 L 5105,5287 5104,5799"/>
 <path fill="none" stroke="rgb(0,69,134)" stroke-width="80" stroke-linejoin="round" d="M 5101,5799 L 5099,5568 5098,5349 5097,5240 5096,5370 5095,5799"/>
 <path fill="none" stroke="rgb(0,69,134)" stroke-width="80" stroke-linejoin="round" d="M 5088,5799 L 5088,5679 5088,5799 Z"/>
 <path fill="none" stroke="rgb(0,69,134)" stroke-width="80" stroke-linejoin="round" d="M 5085,5799 L 5082,4828 5080,5799"/>
 <path fill="none" stroke="rgb(0,69,134)" stroke-width="80" stroke-linejoin="round" d="M 5078,5799 L 5078,5321 5076,5579 5076,5782 5076,5799"/>
 <path fill="none" stroke="rgb(0,69,134)" stroke-width="80" stroke-linejoin="round" d="M 5069,5799 L 5068,5558 5066,5799"/>
 <path fill="none" stroke="rgb(0,69,134)" stroke-width="80" stroke-linejoin="round" d="M 5056,5799 L 5056,5502 5055,5629 5054,5547 5053,5799"/>
 <path fill="none" stroke="rgb(0,69,134)" stroke-width="80" stroke-linejoin="round" d="M 5052,5799 L 5052,3141 5038,5596 5037,5565 5036,5799"/>
 <path fill="none" stroke="rgb(0,69,134)" stroke-width="80" stroke-linejoin="round" d="M 5025,5799 L 5025,5488 5022,5681 5020,5769 5020,5799"/>
 <path fill="none" stroke="rgb(0,69,134)" stroke-width="80" stroke-linejoin="round" d="M 5016,5799 L 5013,5131 5011,4897 5008,5787 5004,5007 5004,5660 5003,5752 5003,5799"/>
 <path fill="none" stroke="rgb(0,69,134)" stroke-width="80" stroke-linejoin="round" d="M 5002,5799 L 5002,4950 5001,5799"/>
 <path fill="none" stroke="rgb(0,69,134)" stroke-width="80" stroke-linejoin="round" d="M 4997,5799 L 4997,5694 4993,4874 4990,5799"/>
 <path fill="none" stroke="rgb(0,69,134)" stroke-width="80" stroke-linejoin="round" d="M 4987,5799 L 4979,4441 4978,5374 4978,5799"/>
 <path fill="none" stroke="rgb(0,69,134)" stroke-width="80" stroke-linejoin="round" d="M 4970,5799 L 4968,4384 4966,5799"/>
 <path fill="none" stroke="rgb(0,69,134)" stroke-width="80" stroke-linejoin="round" d="M 4964,5799 L 4963,5649 4962,5008 4962,5799 4962,4881 4961,4282 4961,5799"/>
 <path fill="none" stroke="rgb(0,69,134)" stroke-width="80" stroke-linejoin="round" d="M 4953,5799 L 4953,5180 4950,5799"/>
 <path fill="none" stroke="rgb(0,69,134)" stroke-width="80" stroke-linejoin="round" d="M 4947,5799 L 4947,5615 4945,5672 4942,5799"/>
 <path fill="none" stroke="rgb(0,69,134)" stroke-width="80" stroke-linejoin="round" d="M 4925,5799 L 4925,5763 4924,5799"/>
 <path fill="none" stroke="rgb(0,69,134)" stroke-width="80" stroke-linejoin="round" d="M 4924,5799 L 4924,5607 4921,5719 4921,5799"/>
 <path fill="none" stroke="rgb(0,69,134)" stroke-width="80" stroke-linejoin="round" d="M 4916,5799 L 4914,3405 4905,5799"/>
 <path fill="none" stroke="rgb(0,69,134)" stroke-width="80" stroke-linejoin="round" d="M 4903,5799 L 4900,5637 4900,4850 4899,5799"/>
 <path fill="none" stroke="rgb(0,69,134)" stroke-width="80" stroke-linejoin="round" d="M 4898,5799 L 4898,5745 4896,5799"/>
 <path fill="none" stroke="rgb(0,69,134)" stroke-width="80" stroke-linejoin="round" d="M 4891,5799 L 4888,4723 4886,5498 4884,5799"/>
 <path fill="none" stroke="rgb(0,69,134)" stroke-width="80" stroke-linejoin="round" d="M 4879,5799 L 4879,5696 4878,5583 4878,5799"/>
 <path fill="none" stroke="rgb(0,69,134)" stroke-width="80" stroke-linejoin="round" d="M 4878,5799 L 4877,4152 4876,5799"/>
 <path fill="none" stroke="rgb(0,69,134)" stroke-width="80" stroke-linejoin="round" d="M 4865,5799 L 4864,5719 4864,5057 4863,5799"/>
 <path fill="none" stroke="rgb(0,69,134)" stroke-width="80" stroke-linejoin="round" d="M 4862,5799 L 4861,4085 4858,5674 4853,5254 4851,4875 4851,5799"/>
 <path fill="none" stroke="rgb(0,69,134)" stroke-width="80" stroke-linejoin="round" d="M 4850,5799 L 4849,5328 4849,5799"/>
 <path fill="none" stroke="rgb(0,69,134)" stroke-width="80" stroke-linejoin="round" d="M 4844,5799 L 4843,5694 4842,5799"/>
 <path fill="none" stroke="rgb(0,69,134)" stroke-width="80" stroke-linejoin="round" d="M 4837,5799 L 4837,5649 4836,5703 4835,5799"/>
 <path fill="none" stroke="rgb(0,69,134)" stroke-width="80" stroke-linejoin="round" d="M 4828,5799 L 4824,5611 4824,5799"/>
 <path fill="none" stroke="rgb(0,69,134)" stroke-width="80" stroke-linejoin="round" d="M 4821,5799 L 4817,4668 4815,5799"/>
 <path fill="none" stroke="rgb(0,69,134)" stroke-width="80" stroke-linejoin="round" d="M 4807,5799 L 4807,5434 4806,5799"/>
 <path fill="none" stroke="rgb(0,69,134)" stroke-width="80" stroke-linejoin="round" d="M 4803,5799 L 4801,5554 4801,4912 4798,5799"/>
 <path fill="none" stroke="rgb(0,69,134)" stroke-width="80" stroke-linejoin="round" d="M 4796,5799 L 4796,5754 4796,5799 Z"/>
 <path fill="none" stroke="rgb(0,69,134)" stroke-width="80" stroke-linejoin="round" d="M 4793,5799 L 4793,5446 4793,5799 Z"/>
 <path fill="none" stroke="rgb(0,69,134)" stroke-width="80" stroke-linejoin="round" d="M 4788,5799 L 4788,5774 4788,4318 4784,5799"/>
 <path fill="none" stroke="rgb(0,69,134)" stroke-width="80" stroke-linejoin="round" d="M 4783,5799 L 4779,4871 4779,5655 4778,4974 4765,4871 4762,5799"/>
 <path fill="none" stroke="rgb(0,69,134)" stroke-width="80" stroke-linejoin="round" d="M 4761,5799 L 4759,5423 4756,5799"/>
 <path fill="none" stroke="rgb(0,69,134)" stroke-width="80" stroke-linejoin="round" d="M 4751,5799 L 4751,5677 4751,5474 4751,5799 Z"/>
 <path fill="none" stroke="rgb(0,69,134)" stroke-width="80" stroke-linejoin="round" d="M 4751,5799 L 4750,5579 4750,5066 4749,5721 4748,5799"/>
 <path fill="none" stroke="rgb(0,69,134)" stroke-width="80" stroke-linejoin="round" d="M 4738,5799 L 4738,5701 4738,5324 4737,5799"/>
 <path fill="none" stroke="rgb(0,69,134)" stroke-width="80" stroke-linejoin="round" d="M 4735,5799 L 4734,4748 4733,5799"/>
 <path fill="none" stroke="rgb(0,69,134)" stroke-width="80" stroke-linejoin="round" d="M 4732,5799 L 4731,4679 4729,5799"/>
 <path fill="none" stroke="rgb(0,69,134)" stroke-width="80" stroke-linejoin="round" d="M 4717,5799 L 4716,4674 4716,5799"/>
 <path fill="none" stroke="rgb(0,69,134)" stroke-width="80" stroke-linejoin="round" d="M 4714,5799 L 4714,5726 4714,5799 Z"/>
 <path fill="none" stroke="rgb(0,69,134)" stroke-width="80" stroke-linejoin="round" d="M 4713,5799 L 4713,5420 4710,5143 4708,5799"/>
 <path fill="none" stroke="rgb(0,69,134)" stroke-width="80" stroke-linejoin="round" d="M 4705,5799 L 4705,4552 4704,5477 4703,5799"/>
 <path fill="none" stroke="rgb(0,69,134)" stroke-width="80" stroke-linejoin="round" d="M 4700,5799 L 4699,5430 4699,5799"/>
 <path fill="none" stroke="rgb(0,69,134)" stroke-width="80" stroke-linejoin="round" d="M 4697,5799 L 4697,5494 4696,5799"/>
 <path fill="none" stroke="rgb(0,69,134)" stroke-width="80" stroke-linejoin="round" d="M 4690,5799 L 4689,5283 4688,5799"/>
 <path fill="none" stroke="rgb(0,69,134)" stroke-width="80" stroke-linejoin="round" d="M 4668,5799 L 4667,5344 4666,5093 4665,5799"/>
 <path fill="none" stroke="rgb(0,69,134)" stroke-width="80" stroke-linejoin="round" d="M 4657,5799 L 4657,5777 4654,5039 4653,5799"/>
 <path fill="none" stroke="rgb(0,69,134)" stroke-width="80" stroke-linejoin="round" d="M 4653,5799 L 4653,4568 4653,5799 Z"/>
 <path fill="none" stroke="rgb(0,69,134)" stroke-width="80" stroke-linejoin="round" d="M 4652,5799 L 4651,5332 4651,5526 4651,5799"/>
 <path fill="none" stroke="rgb(0,69,134)" stroke-width="80" stroke-linejoin="round" d="M 4650,5799 L 4649,5472 4649,5799 4649,4664 4648,5799"/>
 <path fill="none" stroke="rgb(0,69,134)" stroke-width="80" stroke-linejoin="round" d="M 4644,5799 L 4639,5344 4637,5799"/>
 <path fill="none" stroke="rgb(0,69,134)" stroke-width="80" stroke-linejoin="round" d="M 4637,5799 L 4636,5607 4636,5799"/>
 <path fill="none" stroke="rgb(0,69,134)" stroke-width="80" stroke-linejoin="round" d="M 4609,5799 L 4608,5624 4608,5799"/>
 <path fill="none" stroke="rgb(0,69,134)" stroke-width="80" stroke-linejoin="round" d="M 4593,5799 L 4592,4130 4592,5517 4592,5799"/>
 <path fill="none" stroke="rgb(0,69,134)" stroke-width="80" stroke-linejoin="round" d="M 4586,5799 L 4586,5073 4586,5799 Z"/>
 <path fill="none" stroke="rgb(0,69,134)" stroke-width="80" stroke-linejoin="round" d="M 4579,5799 L 4579,5511 4579,5799 Z"/>
 <path fill="none" stroke="rgb(0,69,134)" stroke-width="80" stroke-linejoin="round" d="M 4576,5799 L 4576,5793 4576,5799 Z"/>
 <path fill="none" stroke="rgb(0,69,134)" stroke-width="80" stroke-linejoin="round" d="M 4572,5799 L 4572,5474 4570,5799"/>
 <path fill="none" stroke="rgb(0,69,134)" stroke-width="80" stroke-linejoin="round" d="M 4567,5799 L 4566,5472 4566,5799"/>
 <path fill="none" stroke="rgb(0,69,134)" stroke-width="80" stroke-linejoin="round" d="M 4553,5799 L 4553,5132 4551,5041 4549,5799"/>
 <path fill="none" stroke="rgb(0,69,134)" stroke-width="80" stroke-linejoin="round" d="M 4533,5799 L 4533,5494 4532,5799"/>
 <path fill="none" stroke="rgb(0,69,134)" stroke-width="80" stroke-linejoin="round" d="M 4522,5799 L 4521,5719 4521,5799"/>
 <path fill="none" stroke="rgb(0,69,134)" stroke-width="80" stroke-linejoin="round" d="M 4518,5799 L 4517,5193 4517,5439 4515,5799"/>
 <path fill="none" stroke="rgb(0,69,134)" stroke-width="80" stroke-linejoin="round" d="M 4509,5799 L 4508,5499 4508,5799"/>
 <path fill="none" stroke="rgb(0,69,134)" stroke-width="80" stroke-linejoin="round" d="M 4507,5799 L 4507,5512 4507,5799 Z"/>
 <path fill="none" stroke="rgb(0,69,134)" stroke-width="80" stroke-linejoin="round" d="M 4505,5799 L 4504,5456 4504,5799"/>
 <path fill="none" stroke="rgb(0,69,134)" stroke-width="80" stroke-linejoin="round" d="M 4503,5799 L 4503,5475 4501,5799"/>
 <path fill="none" stroke="rgb(0,69,134)" stroke-width="80" stroke-linejoin="round" d="M 4488,5799 L 4485,5470 4485,5799"/>
 <path fill="none" stroke="rgb(0,69,134)" stroke-width="80" stroke-linejoin="round" d="M 4481,5799 L 4481,5668 4480,5799"/>
 <path fill="none" stroke="rgb(0,69,134)" stroke-width="80" stroke-linejoin="round" d="M 4471,5799 L 4470,4921 4470,5799"/>
 <path fill="none" stroke="rgb(0,69,134)" stroke-width="80" stroke-linejoin="round" d="M 4469,5799 L 4469,5637 4467,5799"/>
 <path fill="none" stroke="rgb(0,69,134)" stroke-width="80" stroke-linejoin="round" d="M 4444,5799 L 4443,5457 4443,5799 4443,5719 4443,5799"/>
 <path fill="none" stroke="rgb(0,69,134)" stroke-width="80" stroke-linejoin="round" d="M 4437,5799 L 4434,5132 4434,5799"/>
 <path fill="none" stroke="rgb(0,69,134)" stroke-width="80" stroke-linejoin="round" d="M 4432,5799 L 4432,5647 4432,5799 Z"/>
 <path fill="none" stroke="rgb(0,69,134)" stroke-width="80" stroke-linejoin="round" d="M 4427,5799 L 4426,5655 4426,5799"/>
 <path fill="none" stroke="rgb(0,69,134)" stroke-width="80" stroke-linejoin="round" d="M 4421,5799 L 4421,5787 4421,5799 Z"/>
 <path fill="none" stroke="rgb(0,69,134)" stroke-width="80" stroke-linejoin="round" d="M 4420,5799 L 4420,4687 4417,5799"/>
 <path fill="none" stroke="rgb(0,69,134)" stroke-width="80" stroke-linejoin="round" d="M 4417,5799 L 4417,5269 4415,5799"/>
 <path fill="none" stroke="rgb(0,69,134)" stroke-width="80" stroke-linejoin="round" d="M 4410,5799 L 4407,4678 4406,5326 4402,5170 4402,5799"/>
 <path fill="none" stroke="rgb(0,69,134)" stroke-width="80" stroke-linejoin="round" d="M 4401,5799 L 4401,5549 4401,5672 4401,5799 Z"/>
 <path fill="none" stroke="rgb(0,69,134)" stroke-width="80" stroke-linejoin="round" d="M 4390,5799 L 4390,5681 4383,5701 4383,5799"/>
 <path fill="none" stroke="rgb(0,69,134)" stroke-width="80" stroke-linejoin="round" d="M 4378,5799 L 4378,5619 4378,5799 Z"/>
 <path fill="none" stroke="rgb(0,69,134)" stroke-width="80" stroke-linejoin="round" d="M 4378,5799 L 4375,5481 4375,5799"/>
 <path fill="none" stroke="rgb(0,69,134)" stroke-width="80" stroke-linejoin="round" d="M 4374,5799 L 4373,5503 4373,5014 4373,5799"/>
 <path fill="none" stroke="rgb(0,69,134)" stroke-width="80" stroke-linejoin="round" d="M 4366,5799 L 4365,5263 4365,5797 4365,5799"/>
 <path fill="none" stroke="rgb(0,69,134)" stroke-width="80" stroke-linejoin="round" d="M 4360,5799 L 4360,5426 4360,5799 Z"/>
 <path fill="none" stroke="rgb(0,69,134)" stroke-width="80" stroke-linejoin="round" d="M 4352,5799 L 4352,5157 4346,5799"/>
 <path fill="none" stroke="rgb(0,69,134)" stroke-width="80" stroke-linejoin="round" d="M 4322,5799 L 4320,5601 4318,5696 4318,5799"/>
 <path fill="none" stroke="rgb(0,69,134)" stroke-width="80" stroke-linejoin="round" d="M 4308,5799 L 4308,5266 4307,5799"/>
 <path fill="none" stroke="rgb(0,69,134)" stroke-width="80" stroke-linejoin="round" d="M 4304,5799 L 4303,4940 4303,5799"/>
 <path fill="none" stroke="rgb(0,69,134)" stroke-width="80" stroke-linejoin="round" d="M 4296,5799 L 4296,5540 4296,5799 Z"/>
 <path fill="none" stroke="rgb(0,69,134)" stroke-width="80" stroke-linejoin="round" d="M 4292,5799 L 4289,5017 4289,5799"/>
 <path fill="none" stroke="rgb(0,69,134)" stroke-width="80" stroke-linejoin="round" d="M 4268,5799 L 4266,4656 4265,5799"/>
 <path fill="none" stroke="rgb(0,69,134)" stroke-width="80" stroke-linejoin="round" d="M 4261,5799 L 4261,5081 4259,5625 4255,5249 4254,5675 4253,5799"/>
 <path fill="none" stroke="rgb(0,69,134)" stroke-width="80" stroke-linejoin="round" d="M 4250,5799 L 4250,5691 4250,5739 4250,5799 Z"/>
 <path fill="none" stroke="rgb(0,69,134)" stroke-width="80" stroke-linejoin="round" d="M 4221,5799 L 4221,5776 4221,5799 Z"/>
 <path fill="none" stroke="rgb(0,69,134)" stroke-width="80" stroke-linejoin="round" d="M 4212,5799 L 4211,5711 4211,5799"/>
 <path fill="none" stroke="rgb(0,69,134)" stroke-width="80" stroke-linejoin="round" d="M 4209,5799 L 4208,4801 4206,5799"/>
 <path fill="none" stroke="rgb(0,69,134)" stroke-width="80" stroke-linejoin="round" d="M 4201,5799 L 4200,5273 4198,5799"/>
 <path fill="none" stroke="rgb(0,69,134)" stroke-width="80" stroke-linejoin="round" d="M 4196,5799 L 4196,5350 4194,5446 4194,5799"/>
 <path fill="none" stroke="rgb(0,69,134)" stroke-width="80" stroke-linejoin="round" d="M 4191,5799 L 4191,5264 4187,5534 4184,5799"/>
 <path fill="none" stroke="rgb(0,69,134)" stroke-width="80" stroke-linejoin="round" d="M 4168,5799 L 4168,4540 4167,5799"/>
 <path fill="none" stroke="rgb(0,69,134)" stroke-width="80" stroke-linejoin="round" d="M 4166,5799 L 4166,5556 4165,5799"/>
 <path fill="none" stroke="rgb(0,69,134)" stroke-width="80" stroke-linejoin="round" d="M 4156,5799 L 4156,5593 4155,5799"/>
 <path fill="none" stroke="rgb(0,69,134)" stroke-width="80" stroke-linejoin="round" d="M 4154,5799 L 4154,5773 4154,5799 Z"/>
 <path fill="none" stroke="rgb(0,69,134)" stroke-width="80" stroke-linejoin="round" d="M 4142,5799 L 4142,5545 4140,5639 4140,5799"/>
 <path fill="none" stroke="rgb(0,69,134)" stroke-width="80" stroke-linejoin="round" d="M 4132,5799 L 4132,5756 4132,5799 Z"/>
 <path fill="none" stroke="rgb(0,69,134)" stroke-width="80" stroke-linejoin="round" d="M 4122,5799 L 4122,3824 4122,5799 Z"/>
 <path fill="none" stroke="rgb(0,69,134)" stroke-width="80" stroke-linejoin="round" d="M 4116,5799 L 4116,5540 4115,5799"/>
 <path fill="none" stroke="rgb(0,69,134)" stroke-width="80" stroke-linejoin="round" d="M 4112,5799 L 4112,5329 4112,5298 4110,5575 4109,5799"/>
 <path fill="none" stroke="rgb(0,69,134)" stroke-width="80" stroke-linejoin="round" d="M 4106,5799 L 4106,5533 4106,5251 4105,5799"/>
 <path fill="none" stroke="rgb(0,69,134)" stroke-width="80" stroke-linejoin="round" d="M 4090,5799 L 4089,5755 4089,5799"/>
 <path fill="none" stroke="rgb(0,69,134)" stroke-width="80" stroke-linejoin="round" d="M 4088,5799 L 4087,5509 4087,5799"/>
 <path fill="none" stroke="rgb(0,69,134)" stroke-width="80" stroke-linejoin="round" d="M 4047,5799 L 4047,5560 4045,5369 4044,5799"/>
 <path fill="none" stroke="rgb(0,69,134)" stroke-width="80" stroke-linejoin="round" d="M 4015,5799 L 4012,5030 4012,5799"/>
 <path fill="none" stroke="rgb(0,69,134)" stroke-width="80" stroke-linejoin="round" d="M 3907,5799 L 3905,4267 3905,5799"/>
 <path fill="none" stroke="rgb(0,69,134)" stroke-width="80" stroke-linejoin="round" d="M 3868,5799 L 3866,5099 3865,5799"/>
 <path fill="none" stroke="rgb(0,69,134)" stroke-width="80" stroke-linejoin="round" d="M 3856,5799 L 3856,5244 3856,5799 Z"/>
 <text class="TextShape"><tspan class="TextParagraph" font-family="Liberation Sans, sans-serif" font-size="353px" font-weight="400"><tspan class="TextPosition" x="1782" y="6360"><tspan fill="rgb(0,0,0)" stroke="none">100</tspan></tspan></tspan></text>
 <text class="TextShape"><tspan class="TextParagraph" font-family="Liberation Sans, sans-serif" font-size="353px" font-weight="400"><tspan class="TextPosition" x="4373" y="6360"><tspan fill="rgb(0,0,0)" stroke="none">1000</tspan></tspan></tspan></text>
 <text class="TextShape"><tspan class="TextParagraph" font-family="Liberation Sans, sans-serif" font-size="353px" font-weight="400"><tspan class="TextPosition" x="6964" y="6360"><tspan fill="rgb(0,0,0)" stroke="none">10000</tspan></tspan></tspan></text>
 <text class="TextShape"><tspan class="TextParagraph" font-family="Liberation Sans, sans-serif" font-size="353px" font-weight="400"><tspan class="TextPosition" x="9546" y="6360"><tspan fill="rgb(0,0,0)" stroke="none">100000</tspan></tspan></tspan></text>
 <text class="TextShape"><tspan class="TextParagraph" font-family="Liberation Sans, sans-serif" font-size="353px" font-weight="400"><tspan class="TextPosition" x="1636" y="5921"><tspan fill="rgb(0,0,0)" stroke="none">1</tspan></tspan></tspan></text>
 <text class="TextShape"><tspan class="TextParagraph" font-family="Liberation Sans, sans-serif" font-size="353px" font-weight="400"><tspan class="TextPosition" x="1446" y="4462"><tspan fill="rgb(0,0,0)" stroke="none">10</tspan></tspan></tspan></text>
 <text class="TextShape"><tspan class="TextParagraph" font-family="Liberation Sans, sans-serif" font-size="353px" font-weight="400"><tspan class="TextPosition" x="1239" y="3002"><tspan fill="rgb(0,0,0)" stroke="none">100</tspan></tspan></tspan></text>
 <text class="TextShape"><tspan class="TextParagraph" font-family="Liberation Sans, sans-serif" font-size="353px" font-weight="400"><tspan class="TextPosition" x="1048" y="1544"><tspan fill="rgb(0,0,0)" stroke="none">1000</tspan></tspan></tspan></text>
 <text class="TextShape"><tspan class="TextParagraph" font-family="Liberation Sans, sans-serif" font-size="459px" font-weight="400"><tspan class="TextPosition" x="1738" y="840"><tspan fill="rgb(0,0,0)" stroke="none">Stars per day vs total stars (log scale)</tspan></tspan></tspan></text>
 <text class="TextShape"><tspan class="TextParagraph" font-family="Liberation Sans, sans-serif" font-size="318px" font-weight="400"><tspan class="TextPosition" x="4866" y="6972"><tspan fill="rgb(0,0,0)" stroke="none">Total stars at end</tspan></tspan></tspan></text>
 <text class="TextShape" transform="translate(852,6026) rotate(-90) translate(-852,-6026)"><tspan class="TextParagraph" font-family="Liberation Sans, sans-serif" font-size="318px" font-weight="400"><tspan class="TextPosition" x="852" y="6026"><tspan fill="rgb(0,0,0)" stroke="none">Average stars per day increase</tspan></tspan></tspan></text>
</svg>