<?xml version="1.0" encoding="UTF-8"?>
<!DOCTYPE svg PUBLIC "-//W3C//DTD SVG 1.1//EN" "http://www.w3.org/Graphics/SVG/1.1/DTD/svg11.dtd">
<svg width="111mm" height="76mm" viewBox="0 0 11100 7600" version="1.1" xmlns="http://www.w3.org/2000/svg" stroke-width="28.222" stroke-linejoin="round" xml:space="preserve">
 <path fill="rgb(255,255,255)" stroke="none" d="M 5581,7555 L 19,7555 19,0 11142,0 11142,7555 5581,7555 Z"/>
 <path fill="none" stroke="rgb(179,179,179)" stroke-linejoin="round" d="M 6172,6240 L 1997,6240 1997,1425 10348,1425 10348,6240 6172,6240 Z"/>
 <path fill="none" stroke="rgb(179,179,179)" stroke-linejoin="round" d="M 10348,6239 L 1997,6239"/>
 <path fill="none" stroke="rgb(179,179,179)" stroke-linejoin="round" d="M 10348,5275 L 1997,5275"/>
 <path fill="none" stroke="rgb(179,179,179)" stroke-linejoin="round" d="M 10348,4312 L 1997,4312"/>
 <path fill="none" stroke="rgb(179,179,179)" stroke-linejoin="round" d="M 10348,3350 L 1997,3350"/>
 <path fill="none" stroke="rgb(179,179,179)" stroke-linejoin="round" d="M 10348,2387 L 1997,2387"/>
 <path fill="none" stroke="rgb(179,179,179)" stroke-linejoin="round" d="M 10348,1424 L 1997,1424"/>
 <path fill="none" stroke="rgb(179,179,179)" stroke-linejoin="round" d="M 1997,5425 L 1997,5275"/>
 <path fill="none" stroke="rgb(179,179,179)" stroke-linejoin="round" d="M 1997,5425 L 1997,5275"/>
 <path fill="none" stroke="rgb(179,179,179)" stroke-linejoin="round" d="M 3667,5425 L 3667,5275"/>
 <path fill="none" stroke="rgb(179,179,179)" stroke-linejoin="round" d="M 3667,5425 L 3667,5275"/>
 <path fill="none" stroke="rgb(179,179,179)" stroke-linejoin="round" d="M 5337,5425 L 5337,5275"/>
 <path fill="none" stroke="rgb(179,179,179)" stroke-linejoin="round" d="M 5337,5425 L 5337,5275"/>
 <path fill="none" stroke="rgb(179,179,179)" stroke-linejoin="round" d="M 7007,5425 L 7007,5275"/>
 <path fill="none" stroke="rgb(179,179,179)" stroke-linejoin="round" d="M 7007,5425 L 7007,5275"/>
 <path fill="none" stroke="rgb(179,179,179)" stroke-linejoin="round" d="M 8677,5425 L 8677,5275"/>
 <path fill="none" stroke="rgb(179,179,179)" stroke-linejoin="round" d="M 8677,5425 L 8677,5275"/>
 <path fill="none" stroke="rgb(179,179,179)" stroke-linejoin="round" d="M 10348,5425 L 10348,5275"/>
 <path fill="none" stroke="rgb(179,179,179)" stroke-linejoin="round" d="M 10348,5425 L 10348,5275"/>
 <path fill="none" stroke="rgb(179,179,179)" stroke-linejoin="round" d="M 1997,5275 L 10348,5275"/>
 <path fill="none" stroke="rgb(179,179,179)" stroke-linejoin="round" d="M 1847,6239 L 1997,6239"/>
 <path fill="none" stroke="rgb(179,179,179)" stroke-linejoin="round" d="M 1847,6239 L 1997,6239"/>
 <path fill="none" stroke="rgb(179,179,179)" stroke-linejoin="round" d="M 1847,5275 L 1997,5275"/>
 <path fill="none" stroke="rgb(179,179,179)" stroke-linejoin="round" d="M 1847,5275 L 1997,5275"/>
 <path fill="none" stroke="rgb(179,179,179)" stroke-linejoin="round" d="M 1847,4312 L 1997,4312"/>
 <path fill="none" stroke="rgb(179,179,179)" stroke-linejoin="round" d="M 1847,4312 L 1997,4312"/>
 <path fill="none" stroke="rgb(179,179,179)" stroke-linejoin="round" d="M 1847,3350 L 1997,3350"/>
 <path fill="none" stroke="rgb(179,179,179)" stroke-linejoin="round" d="M 1847,3350 L 1997,3350"/>
 <path fill="none" stroke="rgb(179,179,179)" stroke-linejoin="round" d="M 1847,2387 L 1997,2387"/>
 <path fill="none" stroke="rgb(179,179,179)" stroke-linejoin="round" d="M 1847,2387 L 1997,2387"/>
 <path fill="none" stroke="rgb(179,179,179)" stroke-linejoin="round" d="M 1847,1424 L 1997,1424"/>
 <path fill="none" stroke="rgb(179,179,179)" stroke-linejoin="round" d="M 1847,1424 L 1997,1424"/>
 <path fill="none" stroke="rgb(179,179,179)" stroke-linejoin="round" d="M 1997,6239 L 1997,1424"/>
 <path fill="none" stroke="rgb(0,69,134)" stroke-width="80" stroke-linejoin="round" d="M 9803,4882 L 7884,4597 7068,4679 6979,4675 6320,4778 5688,4997 5597,4858 5245,4923 5160,4979 5095,5044 4950,4866 4645,5046 4515,4991 4241,4968 4231,4923 4212,5048 4055,5038 4037,4961 4016,5135 4012,5079 3988,5060 3969,5148 3927,4946 3904,5181 3828,5087 3818,5011 3817,5116 3792,5199 3731,5074 3649,4766 3634,5232 3583,5105 3555,5042 3526,5191 3479,5124 3467,5186 3424,5099 3404,5137 3377,5210 3374,4947 3372,5095 3361,5188 3344,5152 3337,5041 3277,5124 3261,5222 3238,5158 3234,4845 3208,5132 3183,5222 3170,5164 3169,5203 3169,5275 3169,5324 3169,5738 3168,5108 3142,5151 3127,5115 3126,5163 3115,5210 3110,5191 3088,5191 3072,5172 3066,5243 3054,5053 3049,5195 3046,5257 3040,4999 3024,5069 3011,5151 3008,5169 2993,5221 2989,5210 2983,5201 2974,5135 2971,5146 2949,4733 2907,5175 2897,5182 2876,5213 2862,5223 2856,5239 2847,5253 2845,5226 2823,5194 2822,5176 2820,5201 2818,5192 2816,5236 2811,5254 2811,5218 2810,5207 2796,5273 2789,5264 2785,5190 2781,5222 2780,5152 2774,5173 2769,5165 2766,5225 2755,5188 2735,5220 2735,5171 2734,5259 2732,5132 2730,5179 2720,4898 2719,5211 2718,5238 2713,5258 2710,5239 2708,5232 2707,5191 2707,5123 2706,5240 2695,5257 2691,5261 2686,5176 2682,5188 2676,5170 2667,5246 2664,5216 2654,4925 2653,5261 2649,5186 2631,5212 2622,5191 2621,5224 2612,5207 2612,5217 2612,5103 2609,5235 2606,5255 2603,5170 2603,5184 2602,5202 2600,5226 2597,5218 2596,5237 2594,5105 2593,5204 2586,4785 2583,5198 2579,4777 2578,5256 2573,4996 2570,5261 2563,5209 2561,5219 2561,5190 2560,5241 2558,5234 2555,5230 2555,5268 2549,5183 2547,5173 2547,5123 2546,5272 2545,5242 2544,5225 2542,5186 2537,5179 2536,5194 2535,5011 2534,5238 2534,5269 2532,5027 2531,5134 2528,5250 2524,4206 2519,5226 2510,5205 2509,5264 2509,5219 2509,5228 2505,5214 2503,2932 2498,5273 2495,5255 2494,5225 2494,5264 2491,5238 2491,5261 2490,5250 2489,5175 2488,5213 2487,5248 2486,5269 2485,5203 2480,5180 2476,5213 2472,5209 2467,5188 2466,5205 2461,5194 2460,5242 2460,5232 2459,5060 2459,5195 2458,5260 2457,5195 2449,5225 2446,5256 2444,5194 2438,5139 2437,4823 2434,5260 2432,5249 2432,5239 2430,5220 2429,5276 2429,5198 2428,5214 2427,5151 2425,5233 2425,5245 2422,5247 2416,5261 2415,5006 2415,5264 2414,5153 2414,5211 2413,5241 2413,5229 2413,5174 2411,5138 2408,5244 2407,5265 2407,5167 2406,5231 2405,5245 2401,5259 2400,5225 2399,5250 2398,5274 2395,5272 2393,5224 2392,5247 2390,5219 2387,5258 2387,5226 2387,5234 2385,5253 2382,5225 2380,4351 2376,5258 2374,5191 2374,5266 2371,5229 2370,5113 2369,5122 2366,4570 2366,5238 2364,5248 2362,5260 2361,5222 2360,5239 2359,5248 2359,5275 2358,5229 2358,5274 2358,5218 2355,5140 2353,5156 2353,5229 2351,5259 2351,5249 2350,5270 2349,5237 2347,5129 2346,5158 2346,5245 2346,5260 2343,5242 2343,5260 2343,5153 2342,5263 2342,5237 2341,5217 2339,5211 2338,5172 2337,5227 2337,2344 2336,5202 2336,5236 2335,5254 2335,5265 2335,5251 2334,5260 2333,5251 2331,5119 2329,4492 2329,5214 2329,5237 2326,5260 2326,5081 2326,5266 2326,5245 2324,5227 2324,5237 2324,5251 2323,5264 2320,5204 2319,5266 2317,5240 2317,5218 2316,5252 2316,5261 2315,5253 2315,5269 2314,5243 2312,5270 2312,5205 2311,5243 2310,5250 2310,5238 2307,5236 2307,5256 2306,5259 2305,5272 2304,5174 2303,5252 2303,5234 2302,5271 2302,5226 2302,5183 2301,4899 2299,5230 2299,5237 2297,5221 2297,5248 2295,5236 2295,5229 2294,5268 2292,5118 2291,5218 2290,5262 2288,5258 2286,5213 2285,5226 2285,5244 2285,5268 2285,5240 2284,5261 2283,5248 2283,5237 2281,5218 2281,5246 2280,5272 2278,5232 2277,5268 2276,5174 2276,5268 2274,5263 2272,5256 2268,5169 2267,5255 2267,5234 2267,5181 2266,5238 2266,5262 2266,5254 2266,5265 2265,5269 2265,5225 2264,3728 2264,5243 2264,5256 2264,5265 2263,5267 2263,5263 2262,5217 2261,5272 2260,5262 2260,5236 2259,5267 2257,5233 2256,5257 2256,5247 2254,5223 2254,5215 2253,5267 2253,5262 2252,5165 2252,5243 2251,5258 2251,5217 2251,5212 2250,5252 2249,5242 2248,5235 2246,5271 2246,5263 2246,5223 2246,5256 2245,5271 2244,5244 2242,5260 2242,5269 2242,5254 2242,5261 2242,5169 2241,5210 2241,5261 2241,5253 2240,5166 2240,5248 2240,5228 2239,5251 2239,5263 2238,5138 2237,5247 2237,5253 2237,5148 2237,5271 2236,5257 2236,4025 2235,5237 2235,5254 2234,5221 2233,5157 2231,5252 2230,5245 2229,5267 2228,5245 2228,4491 2227,5233 2227,5261 2226,5189 2226,5126 2226,5227 2226,5269 2225,5219 2225,5104 2224,5262 2223,5273 2223,5251 2223,5259 2223,5256 2222,5239 2221,5263 2221,5232 2220,5271 2220,5263 2220,5248 2219,5236 2219,5229 2219,5237 2218,5272 2217,5252 2217,5268 2216,5186 2216,5266 2216,5268 2216,5234 2215,5248 2215,5256 2215,5267 2214,5247 2212,5271 2211,5245 2211,5250 2211,5247 2211,5262 2211,3996 2208,5249 2208,5259 2208,5271 2207,5260 2206,5268 2206,5244 2205,5252 2204,5261 2204,5220 2203,5195 2203,5256 2202,5208 2202,5251 2202,5273 2202,5202 2201,5267 2201,5271 2201,5253 2200,5192 2199,5264 2198,5111 2198,5238 2197,5275 2196,5096 2195,5268 2195,5251 2195,5208 2195,5268 2195,5193 2195,5064 2195,5263 2194,5258 2194,5262 2193,5224 2192,5271 2192,5250 2191,5258 2191,5259 2190,5271 2189,5259 2189,5255 2188,5259 2188,5249 2188,5253 2188,5271 2187,5259 2187,5267 2187,5261 2187,4432 2185,5259 2185,5250 2185,5189 2184,5264 2184,5254 2183,5260 2183,5170 2182,5244 2182,5261 2182,5272 2181,5253 2181,5248 2181,5261 2181,5016 2181,5268 2180,5258 2180,5257 2180,5270 2179,5253 2179,5213 2179,5270 2178,4987 2178,5252 2177,5230 2177,5193 2177,5270 2177,5235 2177,5262 2176,5253 2175,5267 2175,5251 2174,5262 2173,5276 2173,5249 2173,5268 2172,5161 2171,5259 2170,5241 2170,5266 2169,5247 2169,5197 2169,5266 2169,5255 2168,5271 2168,5261 2168,5242 2168,5274 2167,5264 2167,5255 2167,5076 2167,5258 2166,5192 2166,5251 2166,5205 2164,5192 2164,5258 2163,5240 2162,5264 2162,5273 2162,5265 2162,5252 2162,5243 2162,5258 2162,5248 2162,5214 2162,5254 2162,5258 2161,5267 2160,5253 2160,5235 2160,5269 2160,5261 2160,5174 2159,5268 2159,5163 2159,5267 2158,5261 2158,5267 2158,5260 2157,5257 2157,5162 2157,5267 2157,5254 2157,5262 2157,5240 2156,5221 2156,5263 2156,5267 2156,5138 2156,5243 2155,5271 2155,5241 2155,5268 2155,5244 2154,5271 2154,5232 2153,5272 2152,5263 2152,5273 2151,5261 2151,5273 2151,5263 2151,5236 2150,5217 2150,5269 2150,5256 2150,5273 2149,5255 2149,5211 2149,5264 2149,5141 2149,5270 2149,5235 2149,5246 2149,5265 2149,5274 2148,5257 2148,5243 2148,5266 2148,5160 2148,5262 2147,5236 2147,5257 2147,5249 2146,5273 2146,5262 2145,5270 2144,5262 2144,5267 2144,5263 2143,5270 2143,5250 2143,5262 2143,5275 2143,5257 2142,5261 2142,5269 2142,5263 2142,5270 2141,5265 2141,5273 2141,5007 2141,5245 2141,5264 2141,5267 2140,5266 2140,5215 2140,5271 2139,5245 2139,5262 2139,5268 2139,5262 2139,5256 2139,5265 2138,5268 2138,5243 2138,5265 2138,5274 2138,5264 2138,5243 2138,5272 2137,5259 2137,5270 2136,5220 2136,5212 2136,5262 2135,5275 2135,5259 2134,5256 2134,5271 2134,5244 2134,5269 2133,5257 2132,5262 2132,5271 2132,5225 2132,5241 2131,5262 2131,5244 2131,5265 2131,5271 2131,5245 2131,5266 2130,5242 2130,5270 2130,5243 2130,5268 2129,5272 2129,5265 2128,5243 2128,5268 2128,5252 2128,5267 2127,5260 2127,5274 2127,5261 2127,5198 2127,5274 2126,5262 2126,5250 2126,5275 2126,5257 2126,5263 2125,5272 2125,5265 2124,5275 2124,5264 2124,5270 2124,5262 2124,5242 2124,5268 2124,5253 2123,5271 2123,5261 2123,5220 2123,5272 2122,5251 2122,5263 2122,5275 2122,5262 2122,5251 2122,5273 2121,5266 2121,5256 2121,5275 2121,5164 2121,5263 2121,5231 2121,5260 2120,5276 2120,5270 2120,5162 2120,5235 2119,5276 2119,5223 2119,5271 2119,5247 2119,5252 2119,5258 2119,5275 2118,5265 2118,5271 2118,5252 2117,5273 2117,5264 2117,5274 2117,5250 2117,5259 2116,5243 2116,5274 2116,5245 2116,5209 2116,5259 2116,5269 2115,5230 2115,5256 2115,5271 2115,5257 2115,5241 2115,5275 2115,5258 2114,5270 2114,5263 2114,5222 2113,5265 2113,5256 2113,5274 2113,5266 2112,5272 2112,5262 2112,5271 2111,5261 2111,5249 2111,5253 2111,5274 2110,5263 2110,5272 2110,5265 2110,5231 2110,5270 2109,5201 2109,5263 2109,5269 2109,5246 2108,5275 2108,5258 2108,5271 2108,5261 2108,5209 2108,5267 2107,5262 2107,5271 2107,5264 2107,5269 2106,5264 2106,5257 2106,5158 2106,5272 2106,5256 2105,5260 2105,5273 2105,5216 2105,5250 2105,5229 2105,5252 2104,5271 2104,5264 2104,5252 2104,5268 2104,5265 2104,5269 2104,5258 2103,5271 2103,5258 2103,5270 2103,5262 2102,5275 2102,5267 2102,5272 2102,5255 2102,5267 2101,5263 2101,5253 2101,5266 2100,5182 2100,5265 2100,5257 2100,5266 2100,5231 2100,5276 2100,5258 2099,5271 2099,5236 2099,5242 2099,5269 2099,5231 2099,5275 2099,5246 2098,5264 2098,5268 2098,5265 2098,5269 2097,5135 2097,5273 2097,5247 2097,5273 2096,5262 2096,5249 2096,5263 2096,5255 2096,5266 2096,5275 2096,5271 2096,5266 2095,5275 2095,5260 2095,5269 2095,5247 2095,5251 2094,5267 2094,5258 2094,5271 2094,5266 2094,5276 2094,5270 2094,5255 2094,5261 2094,5275 2094,5262 2094,5275 2093,5265 2093,5269 2093,4841 2093,5268 2093,5246 2092,5267 2092,5235 2092,5248 2092,5271 2092,5246 2092,5230 2092,5275 2092,5266 2091,5270 2091,5262 2091,5268 2090,5255 2090,5269 2090,5245 2090,5265 2090,5272 2090,5265 2089,5273 2089,5263 2089,5258 2089,5270 2088,5264 2088,5274 2087,5265 2087,5271 2087,5247 2087,5237 2087,5273 2087,5265 2087,5269 2086,5261 2086,5268 2085,5265 2085,5270 2085,5264 2085,5275 2085,5266 2084,5210 2084,5270 2084,5264 2084,5275 2083,5264 2083,5273 2083,5266 2083,5275 2083,5259 2083,5269 2081,5267 2081,5274 2081,5265 2081,5269 2080,5265 2080,5269 2079,5265 2079,5270 2079,5261 2078,5276 2078,5266 2078,5267 2078,5257 2077,5274 2077,5258 2077,5264 2077,5059 2077,5269 2076,5264 2076,5268 2075,5266 2075,5272 2074,5257 2074,5217 2074,5273 2073,5229 2073,5275 2072,5266 2072,5272 2071,5263 2071,5271 2070,5276 2070,5273 2070,5263 2069,5269 2068,5264 2068,5273 2067,5272 2067,5258 2067,5271 2066,5257 2066,5273 2065,5276 2065,5275"/>
 <text class="TextShape"><tspan class="TextParagraph" font-family="Liberation Sans, sans-serif" font-size="353px" font-weight="400"><tspan class="TextPosition" x="1902" y="5836"><tspan fill="rgb(0,0,0)" stroke="none">0</tspan></tspan></tspan></text>
 <text class="TextShape"><tspan class="TextParagraph" font-family="Liberation Sans, sans-serif" font-size="353px" font-weight="400"><tspan class="TextPosition" x="3183" y="5836"><tspan fill="rgb(0,0,0)" stroke="none">10000</tspan></tspan></tspan></text>
 <text class="TextShape"><tspan class="TextParagraph" font-family="Liberation Sans, sans-serif" font-size="353px" font-weight="400"><tspan class="TextPosition" x="4853" y="5836"><tspan fill="rgb(0,0,0)" stroke="none">20000</tspan></tspan></tspan></text>
 <text class="TextShape"><tspan class="TextParagraph" font-family="Liberation Sans, sans-serif" font-size="353px" font-weight="400"><tspan class="TextPosition" x="6524" y="5836"><tspan fill="rgb(0,0,0)" stroke="none">30000</tspan></tspan></tspan></text>
 <text class="TextShape"><tspan class="TextParagraph" font-family="Liberation Sans, sans-serif" font-size="353px" font-weight="400"><tspan class="TextPosition" x="8194" y="5836"><tspan fill="rgb(0,0,0)" stroke="none">40000</tspan></tspan></tspan></text>
 <text class="TextShape"><tspan class="TextParagraph" font-family="Liberation Sans, sans-serif" font-size="353px" font-weight="400"><tspan class="TextPosition" x="9865" y="5836"><tspan fill="rgb(0,0,0)" stroke="none">50000</tspan></tspan></tspan></text>
 <text class="TextShape"><tspan class="TextParagraph" font-family="Liberation Sans, sans-serif" font-size="353px" font-weight="400"><tspan class="TextPosition" x="1246" y="6361"><tspan fill="rgb(0,0,0)" stroke="none">-50</tspan></tspan></tspan></text>
 <text class="TextShape"><tspan class="TextParagraph" font-family="Liberation Sans, sans-serif" font-size="353px" font-weight="400"><tspan class="TextPosition" x="1557" y="5397"><tspan fill="rgb(0,0,0)" stroke="none">0</tspan></tspan></tspan></text>
 <text class="TextShape"><tspan class="TextParagraph" font-family="Liberation Sans, sans-serif" font-size="353px" font-weight="400"><tspan class="TextPosition" x="1367" y="4434"><tspan fill="rgb(0,0,0)" stroke="none">50</tspan></tspan></tspan></text>
 <text class="TextShape"><tspan class="TextParagraph" font-family="Liberation Sans, sans-serif" font-size="353px" font-weight="400"><tspan class="TextPosition" x="1160" y="3471"><tspan fill="rgb(0,0,0)" stroke="none">100</tspan></tspan></tspan></text>
 <text class="TextShape"><tspan class="TextParagraph" font-family="Liberation Sans, sans-serif" font-size="353px" font-weight="400"><tspan class="TextPosition" x="1160" y="2508"><tspan fill="rgb(0,0,0)" stroke="none">150</tspan></tspan></tspan></text>
 <text class="TextShape"><tspan class="TextParagraph" font-family="Liberation Sans, sans-serif" font-size="353px" font-weight="400"><tspan class="TextPosition" x="1160" y="1545"><tspan fill="rgb(0,0,0)" stroke="none">200</tspan></tspan></tspan></text>
 <text class="TextShape"><tspan class="TextParagraph" font-family="Liberation Sans, sans-serif" font-size="459px" font-weight="400"><tspan class="TextPosition" x="2868" y="840"><tspan fill="rgb(0,0,0)" stroke="none">Stars per day vs total stars</tspan></tspan></tspan></text>
 <text class="TextShape"><tspan class="TextParagraph" font-family="Liberation Sans, sans-serif" font-size="318px" font-weight="400"><tspan class="TextPosition" x="4873" y="6972"><tspan fill="rgb(0,0,0)" stroke="none">Total stars at end</tspan></tspan></tspan></text>
 <text class="TextShape" transform="translate(859,6026) rotate(-90) translate(-859,-6026)"><tspan class="TextParagraph" font-family="Liberation Sans, sans-serif" font-size="318px" font-weight="400"><tspan class="TextPosition" x="859" y="6026"><tspan fill="rgb(0,0,0)" stroke="none">Average stars per day increase</tspan></tspan></tspan></text>
</svg>