<?xml version="1.0" encoding="UTF-8"?>
<!DOCTYPE svg PUBLIC "-//W3C//DTD SVG 1.1//EN" "http://www.w3.org/Graphics/SVG/1.1/DTD/svg11.dtd">
<svg width="113mm" height="76mm" viewBox="0 0 11300 7600" version="1.1" xmlns="http://www.w3.org/2000/svg" stroke-width="28.222" stroke-linejoin="round" xml:space="preserve">
 <path fill="rgb(255,255,255)" stroke="none" d="M 5636,7608 L 0,7608 0,0 11272,0 11272,7608 5636,7608 Z"/>
 <path fill="none" stroke="rgb(179,179,179)" stroke-linejoin="round" d="M 6055,7266 L 1063,7266 1063,1426 11047,1426 11047,7266 6055,7266 Z"/>
 <path fill="none" stroke="rgb(179,179,179)" stroke-linejoin="round" d="M 11047,7265 L 1063,7265"/>
 <path fill="none" stroke="rgb(179,179,179)" stroke-linejoin="round" d="M 11047,6680 L 1063,6680"/>
 <path fill="none" stroke="rgb(179,179,179)" stroke-linejoin="round" d="M 11047,6096 L 1063,6096"/>
 <path fill="none" stroke="rgb(179,179,179)" stroke-linejoin="round" d="M 11047,5512 L 1063,5512"/>
 <path fill="none" stroke="rgb(179,179,179)" stroke-linejoin="round" d="M 11047,4928 L 1063,4928"/>
 <path fill="none" stroke="rgb(179,179,179)" stroke-linejoin="round" d="M 11047,4344 L 1063,4344"/>
 <path fill="none" stroke="rgb(179,179,179)" stroke-linejoin="round" d="M 11047,3761 L 1063,3761"/>
 <path fill="none" stroke="rgb(179,179,179)" stroke-linejoin="round" d="M 11047,3177 L 1063,3177"/>
 <path fill="none" stroke="rgb(179,179,179)" stroke-linejoin="round" d="M 11047,2593 L 1063,2593"/>
 <path fill="none" stroke="rgb(179,179,179)" stroke-linejoin="round" d="M 11047,2009 L 1063,2009"/>
 <path fill="none" stroke="rgb(179,179,179)" stroke-linejoin="round" d="M 11047,1425 L 1063,1425"/>
 <path fill="none" stroke="rgb(179,179,179)" stroke-linejoin="round" d="M 1063,6096 L 11047,6096"/>
 <path fill="none" stroke="rgb(179,179,179)" stroke-linejoin="round" d="M 913,7265 L 1063,7265"/>
 <path fill="none" stroke="rgb(179,179,179)" stroke-linejoin="round" d="M 913,7265 L 1063,7265"/>
 <path fill="none" stroke="rgb(179,179,179)" stroke-linejoin="round" d="M 913,6680 L 1063,6680"/>
 <path fill="none" stroke="rgb(179,179,179)" stroke-linejoin="round" d="M 913,6680 L 1063,6680"/>
 <path fill="none" stroke="rgb(179,179,179)" stroke-linejoin="round" d="M 913,6096 L 1063,6096"/>
 <path fill="none" stroke="rgb(179,179,179)" stroke-linejoin="round" d="M 913,6096 L 1063,6096"/>
 <path fill="none" stroke="rgb(179,179,179)" stroke-linejoin="round" d="M 913,5512 L 1063,5512"/>
 <path fill="none" stroke="rgb(179,179,179)" stroke-linejoin="round" d="M 913,5512 L 1063,5512"/>
 <path fill="none" stroke="rgb(179,179,179)" stroke-linejoin="round" d="M 913,4928 L 1063,4928"/>
 <path fill="none" stroke="rgb(179,179,179)" stroke-linejoin="round" d="M 913,4928 L 1063,4928"/>
 <path fill="none" stroke="rgb(179,179,179)" stroke-linejoin="round" d="M 913,4344 L 1063,4344"/>
 <path fill="none" stroke="rgb(179,179,179)" stroke-linejoin="round" d="M 913,4344 L 1063,4344"/>
 <path fill="none" stroke="rgb(179,179,179)" stroke-linejoin="round" d="M 913,3761 L 1063,3761"/>
 <path fill="none" stroke="rgb(179,179,179)" stroke-linejoin="round" d="M 913,3761 L 1063,3761"/>
 <path fill="none" stroke="rgb(179,179,179)" stroke-linejoin="round" d="M 913,3177 L 1063,3177"/>
 <path fill="none" stroke="rgb(179,179,179)" stroke-linejoin="round" d="M 913,3177 L 1063,3177"/>
 <path fill="none" stroke="rgb(179,179,179)" stroke-linejoin="round" d="M 913,2593 L 1063,2593"/>
 <path fill="none" stroke="rgb(179,179,179)" stroke-linejoin="round" d="M 913,2593 L 1063,2593"/>
 <path fill="none" stroke="rgb(179,179,179)" stroke-linejoin="round" d="M 913,2009 L 1063,2009"/>
 <path fill="none" stroke="rgb(179,179,179)" stroke-linejoin="round" d="M 913,2009 L 1063,2009"/>
 <path fill="none" stroke="rgb(179,179,179)" stroke-linejoin="round" d="M 913,1425 L 1063,1425"/>
 <path fill="none" stroke="rgb(179,179,179)" stroke-linejoin="round" d="M 913,1425 L 1063,1425"/>
 <path fill="none" stroke="rgb(179,179,179)" stroke-linejoin="round" d="M 1063,7265 L 1063,1425"/>
 <path fill="none" stroke="rgb(0,69,134)" stroke-width="80" stroke-linejoin="round" d="M 1063,1652 L 1071,2543 1079,3750 1087,4156 1095,4201 1103,4475 1111,4696 1119,4818 1127,4907 1135,4909 1143,4950 1151,5028 1159,5069 1167,5186 1175,5193 1183,5274 1191,5323 1199,5341 1207,5343 1215,5354 1223,5410 1231,5438 1239,5445 1247,5464 1255,5475 1263,5500 1271,5524 1279,5526 1287,5562 1295,5562 1303,5566 1312,5596 1320,5598 1328,5620 1336,5630 1344,5647 1352,5660 1360,5666 1368,5672 1376,5674 1384,5678 1392,5689 1400,5690 1408,5695 1416,5696 1424,5704 1432,5720 1440,5737 1448,5741 1456,5743 1464,5746 1472,5749 1480,5752 1488,5760 1496,5769 1504,5769 1512,5769 1520,5776 1528,5783 1536,5791 1544,5794 1553,5798 1561,5802 1569,5811 1577,5822 1585,5824 1593,5828 1601,5835 1609,5836 1617,5838 1633,5843 1641,5848 1649,5850 1657,5853 1665,5855 1673,5858 1681,5859 1689,5865 1697,5865 1705,5865 1713,5866 1721,5867 1729,5870 1737,5875 1745,5880 1753,5880 1761,5882 1769,5883 1777,5883 1785,5884 1794,5886 1802,5887 1818,5888 1826,5890 1834,5891 1842,5893 1850,5900 1858,5903 1866,5904 1874,5907 1882,5908 1890,5908 1906,5910 1914,5910 1922,5912 1930,5916 1938,5917 1946,5918 1954,5918 1962,5919 1970,5921 1978,5922 1986,5924 2002,5925 2010,5926 2018,5928 2026,5928 2034,5929 2043,5929 2051,5931 2059,5932 2067,5935 2075,5936 2091,5936 2099,5936 2107,5937 2115,5938 2123,5940 2131,5940 2139,5941 2147,5941 2155,5943 2163,5943 2171,5943 2187,5944 2195,5945 2203,5945 2211,5946 2219,5950 2227,5950 2235,5951 2243,5953 2251,5954 2259,5955 2275,5956 2284,5956 2292,5957 2300,5960 2308,5960 2316,5961 2324,5961 2332,5963 2340,5964 2348,5964 2356,5964 2372,5966 2380,5967 2388,5967 2396,5968 2404,5968 2412,5968 2420,5969 2428,5969 2436,5969 2444,5970 2460,5971 2468,5971 2476,5971 2484,5972 2492,5972 2500,5973 2508,5973 2516,5974 2525,5974 2533,5974 2541,5975 2557,5978 2565,5980 2573,5980 2581,5980 2589,5981 2597,5983 2605,5983 2613,5983 2621,5984 2629,5985 2645,5986 2653,5987 2661,5988 2669,5988 2677,5989 2685,5989 2693,5989 2701,5990 2709,5993 2717,5993 2725,5995 2741,5996 2749,5996 2757,5996 2765,5996 2774,5997 2782,5997 2790,5998 2798,5998 2806,5998 2814,5998 2830,5999 2838,5999 2846,6000 2854,6000 2862,6000 2870,6002 2878,6002 2886,6002 2894,6002 2902,6002 2910,6002 2926,6003 2934,6003 2942,6004 2950,6004 2958,6004 2966,6006 2974,6006 2982,6007 2990,6008 2998,6008 3015,6008 3023,6008 3031,6009 3039,6009 3047,6010 3055,6010 3063,6010 3071,6010 3079,6010 3087,6010 3095,6011 3111,6011 3119,6012 3127,6012 3135,6013 3143,6013 3151,6013 3159,6014 3167,6014 3175,6014 3183,6014 3199,6016 3207,6016 3215,6016 3223,6016 3231,6016 3239,6017 3247,6017 3256,6017 3264,6018 3272,6018 3280,6019 3296,6019 3304,6019 3312,6019 3320,6019 3328,6019 3336,6020 3344,6020 3352,6020 3360,6021 3368,6021 3384,6022 3392,6022 3400,6022 3408,6022 3416,6022 3424,6022 3432,6023 3440,6023 3448,6024 3456,6025 3464,6026 3480,6026 3488,6026 3496,6026 3505,6026 3513,6027 3521,6027 3529,6027 3537,6027 3545,6027 3553,6027 3569,6028 3577,6029 3585,6029 3593,6029 3601,6029 3609,6030 3617,6030 3625,6030 3633,6031 3641,6031 3649,6031 3665,6031 3673,6032 3681,6032 3689,6032 3697,6033 3705,6033 3713,6034 3721,6034 3729,6034 3737,6034 3754,6035 3762,6035 3770,6035 3778,6035 3786,6035 3794,6035 3802,6035 3810,6036 3818,6036 3826,6036 3834,6036 3850,6037 3858,6037 3866,6037 3874,6037 3882,6038 3890,6038 3898,6038 3906,6038 3914,6038 3922,6039 3938,6039 3946,6039 3954,6039 3962,6039 3970,6040 3978,6040 3987,6040 3995,6040 4003,6040 4011,6040 4019,6041 4035,6041 4043,6041 4051,6042 4059,6042 4067,6042 4075,6042 4083,6043 4091,6043 4099,6044 4107,6044 4123,6044 4131,6045 4139,6045 4147,6045 4155,6045 4163,6045 4171,6045 4179,6045 4187,6046 4195,6046 4203,6046 4219,6047 4227,6047 4236,6047 4244,6047 4252,6047 4260,6047 4268,6048 4276,6048 4284,6048 4292,6048 4308,6048 4316,6048 4324,6048 4332,6048 4340,6048 4348,6049 4356,6049 4364,6049 4372,6049 4380,6049 4388,6049 4404,6050 4412,6050 4420,6050 4428,6050 4436,6050 4444,6050 4452,6050 4460,6050 4468,6050 4477,6050 4493,6051 4501,6051 4509,6051 4517,6052 4525,6052 4533,6052 4541,6052 4549,6052 4557,6052 4565,6052 4573,6053 4589,6053 4597,6053 4605,6053 4613,6053 4621,6053 4629,6054 4637,6054 4645,6054 4653,6054 4661,6054 4677,6054 4685,6054 4693,6054 4701,6054 4709,6055 4718,6055 4726,6055 4734,6055 4742,6055 4750,6056 4758,6056 4774,6056 4782,6056 4790,6056 4798,6057 4806,6057 4814,6057 4822,6057 4830,6057 4838,6057 4846,6057 4862,6058 4870,6058 4878,6058 4886,6058 4894,6058 4902,6058 4910,6059 4918,6059 4926,6059 4934,6059 4942,6059 4958,6059 4967,6059 4975,6059 4983,6059 4991,6059 4999,6060 5007,6060 5015,6060 5023,6060 5031,6060 5047,6061 5055,6061 5063,6061 5071,6061 5079,6061 5087,6061 5095,6061 5103,6061 5111,6061 5119,6062 5127,6062 5143,6062 5151,6062 5159,6062 5167,6062 5175,6062 5183,6062 5191,6062 5199,6062 5208,6062 5216,6062 5232,6062 5240,6063 5248,6063 5256,6063 5264,6063 5272,6063 5280,6063 5288,6063 5296,6064 5304,6064 5312,6064 5328,6064 5336,6065 5344,6065 5352,6065 5360,6065 5368,6065 5376,6065 5384,6065 5392,6065 5400,6065 5416,6066 5424,6066 5432,6066 5440,6066 5449,6066 5457,6066 5465,6066 5473,6067 5481,6067 5489,6067 5497,6067 5513,6067 5521,6067 5529,6067 5537,6067 5545,6067 5553,6067 5561,6067 5569,6068 5577,6068 5585,6068 5601,6068 5609,6068 5617,6068 5625,6068 5633,6068 5640,6068 5648,6068 5656,6069 5664,6069 5672,6069 5680,6069 5697,6069 5705,6069 5713,6069 5721,6069 5729,6069 5737,6069 5745,6069 5753,6070 5761,6070 5769,6070 5785,6070 5793,6070 5801,6070 5809,6070 5817,6070 5825,6070 5833,6070 5841,6070 5849,6070 5857,6070 5865,6070 5881,6070 5889,6070 5897,6070 5905,6070 5913,6071 5921,6071 5929,6071 5938,6071 5946,6071 5954,6071 5970,6071 5978,6071 5986,6071 5994,6071 6002,6071 6010,6071 6018,6071 6026,6071 6034,6071 6042,6071 6050,6072 6066,6072 6074,6072 6082,6072 6090,6072 6098,6072 6106,6072 6114,6072 6122,6072 6130,6072 6138,6072 6146,6072 6162,6073 6170,6073 6179,6073 6187,6073 6195,6073 6203,6073 6211,6073 6219,6073 6227,6073 6235,6073 6251,6073 6259,6073 6267,6073 6275,6074 6283,6074 6291,6074 6299,6074 6307,6074 6315,6074 6323,6074 6331,6074 6347,6074 6355,6074 6363,6074 6371,6074 6379,6074 6387,6074 6395,6075 6403,6075 6411,6075 6420,6075 6436,6075 6444,6075 6452,6075 6460,6075 6468,6075 6476,6075 6484,6075 6492,6075 6500,6075 6508,6075 6516,6075 6532,6075 6540,6075 6548,6075 6556,6075 6564,6075 6572,6075 6580,6075 6588,6076 6596,6076 6604,6076 6620,6076 6628,6076 6636,6076 6644,6076 6652,6076 6660,6076 6669,6076 6677,6076 6685,6076 6693,6076 6701,6076 6717,6076 6725,6076 6733,6076 6741,6076 6749,6076 6757,6076 6765,6076 6773,6076 6781,6076 6789,6076 6805,6076 6813,6077 6821,6077 6829,6077 6837,6077 6845,6077 6853,6077 6861,6077 6869,6077 6877,6077 6885,6077 6901,6077 6910,6077 6918,6077 6926,6077 6934,6077 6942,6077 6950,6077 6958,6077 6966,6078 6974,6078 6990,6078 6998,6078 7006,6078 7014,6078 7022,6078 7030,6078 7038,6078 7046,6078 7054,6078 7062,6078 7070,6078 7086,6078 7094,6078 7102,6078 7110,6079 7118,6079 7126,6079 7134,6079 7142,6079 7151,6079 7159,6079 7175,6079 7183,6079 7191,6079 7199,6079 7207,6079 7215,6079 7223,6079 7231,6079 7239,6079 7247,6079 7255,6079 7271,6079 7279,6079 7287,6079 7295,6080 7303,6080 7311,6080 7319,6080 7327,6080 7335,6080 7343,6080 7359,6080 7367,6080 7375,6080 7383,6080 7391,6080 7400,6080 7408,6080 7416,6080 7424,6080 7432,6080 7440,6080 7456,6080 7464,6080 7472,6080 7480,6081 7488,6081 7496,6081 7504,6081 7512,6081 7520,6081 7528,6081 7544,6081 7552,6081 7560,6081 7568,6081 7576,6081 7584,6081 7592,6081 7600,6081 7608,6081 7616,6081 7624,6081 7641,6081 7649,6081 7657,6081 7665,6081 7673,6082 7681,6082 7689,6082 7697,6082 7705,6082 7713,6082 7729,6082 7737,6082 7745,6082 7753,6082 7761,6082 7769,6082 7777,6082 7785,6082 7793,6082 7801,6082 7809,6082 7825,6082 7833,6082 7841,6082 7849,6082 7857,6082 7865,6082 7873,6082 7882,6083 7890,6083 7898,6083 7914,6083 7922,6083 7930,6083 7938,6083 7946,6083 7954,6083 7962,6083 7970,6083 7978,6083 7986,6083 7994,6083 8010,6083 8018,6083 8026,6084 8034,6084 8042,6084 8050,6084 8058,6084 8066,6084 8074,6084 8082,6084 8098,6084 8106,6084 8114,6084 8122,6084 8131,6084 8139,6084 8147,6084 8155,6084 8163,6085 8171,6085 8179,6085 8195,6085 8203,6085 8211,6085 8219,6085 8227,6085 8235,6085 8243,6085 8251,6085 8259,6085 8267,6085 8283,6085 8291,6085 8299,6085 8307,6085 8315,6085 8323,6085 8331,6085 8339,6085 8347,6086 8355,6086 8363,6086 8380,6086 8388,6086 8396,6086 8404,6086 8412,6086 8420,6086 8428,6086 8436,6086 8444,6086 8452,6086 8468,6086 8476,6086 8484,6086 8492,6086 8500,6086 8508,6086 8516,6086 8524,6086 8532,6086 8540,6086 8548,6086 8564,6087 8572,6087 8580,6087 8588,6087 8596,6087 8604,6087 8613,6087 8621,6087 8629,6087 8637,6087 8653,6087 8661,6087 8669,6087 8677,6087 8685,6087 8693,6087 8701,6087 8709,6087 8717,6087 8725,6087 8733,6087 8749,6087 8757,6087 8765,6087 8773,6087 8781,6087 8789,6087 8797,6087 8805,6087 8813,6087 8821,6088 8837,6088 8845,6088 8853,6088 8862,6088 8870,6088 8878,6088 8886,6088 8894,6088 8902,6088 8910,6088 8918,6088 8934,6088 8942,6088 8950,6088 8958,6088 8966,6088 8974,6088 8982,6088 8990,6088 8998,6088 9006,6088 9022,6089 9030,6089 9038,6089 9046,6089 9054,6089 9062,6089 9070,6089 9078,6089 9086,6089 9094,6089 9103,6089 9119,6089 9127,6089 9135,6089 9143,6089 9151,6089 9159,6089 9167,6089 9175,6089 9183,6089 9191,6089 9207,6089 9215,6089 9223,6090 9231,6090 9239,6090 9247,6090 9255,6090 9263,6090 9271,6090 9279,6090 9287,6090 9303,6090 9311,6090 9319,6090 9327,6090 9335,6090 9344,6090 9352,6090 9360,6090 9368,6090 9376,6090 9392,6090 9400,6090 9408,6090 9416,6090 9424,6090 9432,6090 9440,6090 9448,6090 9456,6090 9464,6090 9472,6090 9488,6090 9496,6090 9504,6090 9512,6091 9520,6091 9528,6091 9536,6091 9544,6091 9552,6091 9560,6091 9576,6091 9584,6091 9593,6091 9601,6091 9609,6091 9617,6091 9625,6091 9633,6091 9641,6091 9649,6091 9657,6091 9673,6091 9681,6091 9689,6091 9697,6091 9705,6091 9713,6091 9721,6091 9729,6091 9737,6091 9745,6091 9761,6091 9769,6091 9777,6091 9785,6092 9793,6092 9801,6092 9809,6092 9817,6092 9825,6092 9834,6092 9842,6092 9858,6092 9866,6092 9874,6092 9882,6092 9890,6092 9898,6092 9906,6092 9914,6092 9922,6092 9930,6092 9946,6092 9954,6092 9962,6092 9970,6092 9978,6092 9986,6092 9994,6092 10002,6092 10010,6093 10018,6093 10026,6093 10042,6093 10050,6093 10058,6093 10066,6093 10075,6093 10083,6093 10091,6093 10099,6093 10107,6093 10115,6093 10131,6093 10139,6093 10147,6093 10155,6093 10163,6093 10171,6093 10179,6093 10187,6093 10195,6093 10203,6093 10211,6094 10227,6094 10235,6094 10243,6094 10251,6094 10259,6094 10267,6094 10275,6094 10283,6094 10291,6094 10299,6094 10315,6094 10324,6094 10332,6094 10340,6094 10348,6094 10356,6094 10364,6094 10372,6094 10380,6094 10388,6094 10396,6094 10412,6094 10420,6094 10428,6094 10436,6094 10444,6095 10452,6095 10460,6095 10468,6095 10476,6095 10484,6095 10500,6095 10508,6095 10516,6095 10524,6095 10532,6095 10540,6095 10548,6095 10556,6095 10565,6095 10573,6095 10581,6095 10597,6095 10605,6095 10613,6095 10621,6095 10629,6095 10637,6095 10645,6096 10653,6096 10661,6096 10669,6096 10685,6096 10693,6096 10701,6096 10709,6096 10717,6096 10725,6096 10733,6096 10741,6096 10749,6096 10757,6096 10765,6096 10781,6096 10789,6096 10797,6096 10806,6096 10814,6096 10822,6096 10830,6096 10838,6096 10846,6096 10854,6096 10870,6096 10878,6096 10886,6096 10894,6096 10902,6096 10910,6096 10918,6096 10926,6096 10934,6096 10942,6096 10950,6096 10966,6097 10974,6097 10982,6097 10990,6097 10998,6097 11006,6097 11014,6097 11022,6097 11030,6098 11038,6170 11047,6797"/>
 <text class="TextShape"><tspan class="TextParagraph" font-family="Liberation Sans, sans-serif" font-size="353px" font-weight="400"><tspan class="TextPosition" x="312" y="7387"><tspan fill="rgb(0,0,0)" stroke="none">-40</tspan></tspan></tspan></text>
 <text class="TextShape"><tspan class="TextParagraph" font-family="Liberation Sans, sans-serif" font-size="353px" font-weight="400"><tspan class="TextPosition" x="312" y="6802"><tspan fill="rgb(0,0,0)" stroke="none">-20</tspan></tspan></tspan></text>
 <text class="TextShape"><tspan class="TextParagraph" font-family="Liberation Sans, sans-serif" font-size="353px" font-weight="400"><tspan class="TextPosition" x="623" y="6218"><tspan fill="rgb(0,0,0)" stroke="none">0</tspan></tspan></tspan></text>
 <text class="TextShape"><tspan class="TextParagraph" font-family="Liberation Sans, sans-serif" font-size="353px" font-weight="400"><tspan class="TextPosition" x="433" y="5634"><tspan fill="rgb(0,0,0)" stroke="none">20</tspan></tspan></tspan></text>
 <text class="TextShape"><tspan class="TextParagraph" font-family="Liberation Sans, sans-serif" font-size="353px" font-weight="400"><tspan class="TextPosition" x="433" y="5050"><tspan fill="rgb(0,0,0)" stroke="none">40</tspan></tspan></tspan></text>
 <text class="TextShape"><tspan class="TextParagraph" font-family="Liberation Sans, sans-serif" font-size="353px" font-weight="400"><tspan class="TextPosition" x="433" y="4466"><tspan fill="rgb(0,0,0)" stroke="none">60</tspan></tspan></tspan></text>
 <text class="TextShape"><tspan class="TextParagraph" font-family="Liberation Sans, sans-serif" font-size="353px" font-weight="400"><tspan class="TextPosition" x="433" y="3882"><tspan fill="rgb(0,0,0)" stroke="none">80</tspan></tspan></tspan></text>
 <text class="TextShape"><tspan class="TextParagraph" font-family="Liberation Sans, sans-serif" font-size="353px" font-weight="400"><tspan class="TextPosition" x="226" y="3298"><tspan fill="rgb(0,0,0)" stroke="none">100</tspan></tspan></tspan></text>
 <text class="TextShape"><tspan class="TextParagraph" font-family="Liberation Sans, sans-serif" font-size="353px" font-weight="400"><tspan class="TextPosition" x="226" y="2714"><tspan fill="rgb(0,0,0)" stroke="none">120</tspan></tspan></tspan></text>
 <text class="TextShape"><tspan class="TextParagraph" font-family="Liberation Sans, sans-serif" font-size="353px" font-weight="400"><tspan class="TextPosition" x="226" y="2130"><tspan fill="rgb(0,0,0)" stroke="none">140</tspan></tspan></tspan></text>
 <text class="TextShape"><tspan class="TextParagraph" font-family="Liberation Sans, sans-serif" font-size="353px" font-weight="400"><tspan class="TextPosition" x="226" y="1546"><tspan fill="rgb(0,0,0)" stroke="none">160</tspan></tspan></tspan></text>
 <text class="TextShape"><tspan class="TextParagraph" font-family="Liberation Sans, sans-serif" font-size="459px" font-weight="400"><tspan class="TextPosition" x="3778" y="841"><tspan fill="rgb(0,0,0)" stroke="none">Star Gain Per Day</tspan></tspan></tspan></text>
</svg>