<?xml version="1.0" encoding="UTF-8"?>
<!DOCTYPE svg PUBLIC "-//W3C//DTD SVG 1.1//EN" "http://www.w3.org/Graphics/SVG/1.1/DTD/svg11.dtd">
<svg width="113mm" height="76mm" viewBox="0 0 11300 7600" version="1.1" xmlns="http://www.w3.org/2000/svg" stroke-width="28.222" stroke-linejoin="round" xml:space="preserve">
 <path fill="rgb(255,255,255)" stroke="none" d="M 5636,7608 L 0,7608 0,0 11272,0 11272,7608 5636,7608 Z"/>
 <path fill="none" stroke="rgb(179,179,179)" stroke-linejoin="round" d="M 6245,7266 L 1444,7266 1444,1426 11047,1426 11047,7266 6245,7266 Z"/>
 <path fill="none" stroke="rgb(179,179,179)" stroke-linejoin="round" d="M 11047,7265 L 1444,7265"/>
 <path fill="none" stroke="rgb(179,179,179)" stroke-linejoin="round" d="M 11047,6680 L 1444,6680"/>
 <path fill="none" stroke="rgb(179,179,179)" stroke-linejoin="round" d="M 11047,6096 L 1444,6096"/>
 <path fill="none" stroke="rgb(179,179,179)" stroke-linejoin="round" d="M 11047,5512 L 1444,5512"/>
 <path fill="none" stroke="rgb(179,179,179)" stroke-linejoin="round" d="M 11047,4928 L 1444,4928"/>
 <path fill="none" stroke="rgb(179,179,179)" stroke-linejoin="round" d="M 11047,4344 L 1444,4344"/>
 <path fill="none" stroke="rgb(179,179,179)" stroke-linejoin="round" d="M 11047,3761 L 1444,3761"/>
 <path fill="none" stroke="rgb(179,179,179)" stroke-linejoin="round" d="M 11047,3177 L 1444,3177"/>
 <path fill="none" stroke="rgb(179,179,179)" stroke-linejoin="round" d="M 11047,2593 L 1444,2593"/>
 <path fill="none" stroke="rgb(179,179,179)" stroke-linejoin="round" d="M 11047,2009 L 1444,2009"/>
 <path fill="none" stroke="rgb(179,179,179)" stroke-linejoin="round" d="M 11047,1425 L 1444,1425"/>
 <path fill="none" stroke="rgb(179,179,179)" stroke-linejoin="round" d="M 1444,7265 L 11047,7265"/>
 <path fill="none" stroke="rgb(179,179,179)" stroke-linejoin="round" d="M 1294,7265 L 1444,7265"/>
 <path fill="none" stroke="rgb(179,179,179)" stroke-linejoin="round" d="M 1294,7265 L 1444,7265"/>
 <path fill="none" stroke="rgb(179,179,179)" stroke-linejoin="round" d="M 1294,6680 L 1444,6680"/>
 <path fill="none" stroke="rgb(179,179,179)" stroke-linejoin="round" d="M 1294,6680 L 1444,6680"/>
 <path fill="none" stroke="rgb(179,179,179)" stroke-linejoin="round" d="M 1294,6096 L 1444,6096"/>
 <path fill="none" stroke="rgb(179,179,179)" stroke-linejoin="round" d="M 1294,6096 L 1444,6096"/>
 <path fill="none" stroke="rgb(179,179,179)" stroke-linejoin="round" d="M 1294,5512 L 1444,5512"/>
 <path fill="none" stroke="rgb(179,179,179)" stroke-linejoin="round" d="M 1294,5512 L 1444,5512"/>
 <path fill="none" stroke="rgb(179,179,179)" stroke-linejoin="round" d="M 1294,4928 L 1444,4928"/>
 <path fill="none" stroke="rgb(179,179,179)" stroke-linejoin="round" d="M 1294,4928 L 1444,4928"/>
 <path fill="none" stroke="rgb(179,179,179)" stroke-linejoin="round" d="M 1294,4344 L 1444,4344"/>
 <path fill="none" stroke="rgb(179,179,179)" stroke-linejoin="round" d="M 1294,4344 L 1444,4344"/>
 <path fill="none" stroke="rgb(179,179,179)" stroke-linejoin="round" d="M 1294,3761 L 1444,3761"/>
 <path fill="none" stroke="rgb(179,179,179)" stroke-linejoin="round" d="M 1294,3761 L 1444,3761"/>
 <path fill="none" stroke="rgb(179,179,179)" stroke-linejoin="round" d="M 1294,3177 L 1444,3177"/>
 <path fill="none" stroke="rgb(179,179,179)" stroke-linejoin="round" d="M 1294,3177 L 1444,3177"/>
 <path fill="none" stroke="rgb(179,179,179)" stroke-linejoin="round" d="M 1294,2593 L 1444,2593"/>
 <path fill="none" stroke="rgb(179,179,179)" stroke-linejoin="round" d="M 1294,2593 L 1444,2593"/>
 <path fill="none" stroke="rgb(179,179,179)" stroke-linejoin="round" d="M 1294,2009 L 1444,2009"/>
 <path fill="none" stroke="rgb(179,179,179)" stroke-linejoin="round" d="M 1294,2009 L 1444,2009"/>
 <path fill="none" stroke="rgb(179,179,179)" stroke-linejoin="round" d="M 1294,1425 L 1444,1425"/>
 <path fill="none" stroke="rgb(179,179,179)" stroke-linejoin="round" d="M 1294,1425 L 1444,1425"/>
 <path fill="none" stroke="rgb(179,179,179)" stroke-linejoin="round" d="M 1444,7265 L 1444,1425"/>
 <path fill="none" stroke="rgb(0,69,134)" stroke-width="80" stroke-linejoin="round" d="M 1444,1805 L 1451,2367 1459,3147 1467,3718 1474,3780 1482,4240 1490,4682 1498,4746 1505,4993 1513,5052 1521,5097 1528,5199 1536,5412 1544,5503 1552,5695 1559,5702 1567,5715 1575,5825 1583,5837 1590,5852 1598,5855 1606,5872 1613,5885 1621,5914 1629,5931 1637,5984 1644,5990 1652,5991 1660,6009 1668,6051 1675,6109 1683,6119 1691,6155 1698,6175 1706,6195 1714,6228 1722,6236 1729,6267 1737,6280 1745,6299 1753,6301 1760,6302 1768,6310 1776,6322 1783,6327 1791,6369 1799,6380 1807,6396 1814,6399 1822,6417 1830,6434 1838,6444 1845,6444 1853,6444 1868,6445 1876,6445 1884,6463 1892,6474 1899,6475 1907,6483 1915,6486 1923,6501 1930,6513 1938,6517 1946,6525 1953,6529 1961,6530 1969,6535 1977,6546 1984,6555 1992,6557 2000,6568 2008,6570 2015,6575 2023,6581 2031,6583 2038,6599 2046,6628 2054,6634 2062,6649 2069,6659 2077,6661 2085,6664 2093,6670 2108,6686 2116,6687 2123,6689 2131,6690 2139,6691 2147,6695 2154,6695 2170,6705 2178,6710 2185,6713 2193,6716 2201,6717 2208,6721 2224,6726 2232,6734 2239,6748 2247,6748 2255,6748 2263,6750 2270,6751 2278,6758 2286,6759 2293,6760 2301,6763 2309,6765 2317,6767 2324,6767 2332,6768 2347,6776 2355,6779 2363,6782 2371,6785 2378,6790 2386,6795 2394,6798 2402,6804 2409,6805 2417,6808 2425,6821 2432,6822 2440,6827 2448,6828 2456,6834 2463,6834 2471,6834 2479,6836 2487,6838 2494,6841 2502,6841 2510,6841 2525,6843 2533,6845 2541,6845 2548,6846 2556,6847 2564,6852 2579,6857 2587,6857 2595,6861 2602,6863 2610,6868 2618,6870 2626,6870 2641,6872 2649,6874 2657,6874 2664,6878 2672,6879 2680,6880 2687,6880 2703,6882 2711,6883 2718,6886 2726,6887 2734,6888 2742,6889 2757,6890 2765,6891 2772,6893 2780,6896 2788,6899 2796,6902 2803,6905 2819,6906 2827,6906 2834,6909 2842,6910 2850,6914 2857,6916 2865,6917 2881,6918 2888,6918 2896,6919 2904,6920 2912,6921 2919,6922 2935,6923 2942,6926 2950,6929 2958,6932 2966,6936 2973,6936 2981,6939 2997,6941 3004,6941 3012,6941 3020,6941 3027,6943 3035,6948 3043,6950 3058,6956 3066,6957 3074,6959 3082,6960 3089,6960 3097,6961 3112,6962 3120,6963 3128,6963 3136,6965 3143,6965 3151,6967 3159,6967 3174,6971 3182,6972 3190,6972 3197,6972 3205,6972 3213,6973 3221,6973 3236,6974 3244,6977 3251,6977 3259,6978 3267,6978 3275,6979 3290,6983 3298,6983 3306,6984 3313,6984 3321,6986 3329,6987 3336,6988 3352,6989 3360,6991 3367,6991 3375,6991 3383,6993 3391,6995 3398,6996 3414,7000 3421,7001 3429,7002 3437,7004 3445,7004 3452,7006 3468,7007 3476,7008 3483,7009 3491,7009 3499,7010 3506,7011 3514,7011 3530,7012 3537,7012 3545,7014 3553,7014 3561,7015 3568,7015 3576,7016 3591,7017 3599,7018 3607,7019 3615,7020 3622,7020 3630,7020 3638,7022 3646,7022 3653,7022 3661,7022 3669,7023 3676,7023 3684,7024 3692,7025 3707,7026 3715,7026 3723,7027 3731,7027 3738,7027 3746,7028 3754,7028 3769,7029 3777,7030 3785,7032 3792,7032 3800,7032 3808,7034 3823,7034 3831,7034 3839,7035 3846,7036 3854,7036 3862,7036 3870,7038 3885,7040 3893,7041 3901,7041 3908,7041 3916,7041 3924,7042 3931,7042 3947,7042 3955,7043 3962,7044 3970,7044 3978,7045 3986,7045 4001,7046 4009,7047 4016,7048 4024,7048 4032,7049 4040,7049 4047,7050 4063,7051 4070,7051 4078,7051 4086,7052 4094,7053 4101,7053 4109,7054 4125,7056 4132,7056 4140,7056 4148,7058 4155,7059 4163,7059 4179,7062 4186,7063 4194,7063 4202,7063 4210,7063 4217,7064 4225,7064 4240,7064 4248,7066 4256,7066 4264,7066 4271,7068 4279,7068 4287,7069 4302,7070 4310,7071 4318,7072 4325,7072 4333,7072 4341,7074 4356,7075 4364,7075 4372,7075 4380,7076 4387,7076 4395,7076 4403,7076 4418,7077 4426,7077 4434,7077 4441,7077 4449,7078 4457,7078 4465,7078 4480,7079 4488,7080 4495,7080 4503,7081 4511,7081 4519,7082 4534,7083 4542,7084 4550,7085 4557,7085 4565,7085 4573,7086 4580,7086 4596,7087 4604,7087 4611,7087 4619,7088 4627,7089 4635,7090 4642,7090 4658,7090 4665,7090 4673,7091 4681,7091 4689,7091 4696,7093 4704,7093 4720,7093 4727,7093 4735,7093 4743,7093 4750,7093 4758,7093 4774,7094 4781,7094 4789,7094 4797,7095 4805,7095 4812,7095 4820,7096 4835,7097 4843,7097 4851,7097 4859,7097 4866,7097 4874,7097 4882,7099 4897,7101 4905,7101 4913,7102 4920,7102 4928,7103 4936,7103 4951,7103 4959,7104 4967,7104 4974,7104 4982,7104 4990,7104 4998,7105 5013,7105 5021,7106 5029,7106 5036,7106 5044,7106 5052,7107 5059,7107 5075,7108 5083,7108 5090,7108 5098,7109 5106,7109 5114,7109 5129,7110 5137,7110 5144,7111 5152,7111 5160,7111 5168,7111 5175,7111 5191,7112 5199,7112 5206,7113 5214,7114 5222,7114 5229,7114 5237,7114 5253,7115 5260,7115 5268,7116 5276,7117 5284,7117 5291,7117 5299,7117 5307,7118 5314,7118 5322,7118 5330,7118 5338,7119 5345,7119 5353,7120 5369,7120 5376,7121 5384,7121 5392,7121 5399,7121 5407,7121 5415,7121 5430,7122 5438,7122 5446,7123 5454,7124 5461,7124 5469,7124 5484,7125 5492,7125 5500,7126 5508,7126 5515,7126 5523,7126 5531,7126 5546,7127 5554,7127 5562,7127 5569,7127 5577,7128 5585,7128 5593,7128 5608,7129 5616,7129 5624,7130 5631,7130 5638,7130 5646,7130 5661,7131 5669,7131 5677,7131 5684,7131 5692,7131 5700,7132 5708,7133 5723,7133 5731,7133 5738,7133 5746,7134 5754,7134 5762,7134 5769,7135 5785,7135 5793,7135 5800,7135 5808,7135 5816,7136 5823,7136 5839,7136 5847,7136 5854,7137 5862,7137 5870,7137 5877,7137 5885,7138 5901,7138 5908,7138 5916,7138 5924,7139 5932,7139 5939,7139 5947,7139 5962,7140 5970,7140 5978,7140 5986,7140 5993,7141 6001,7141 6017,7141 6024,7142 6032,7142 6040,7143 6047,7143 6055,7143 6063,7143 6078,7144 6086,7144 6094,7144 6102,7144 6109,7144 6117,7145 6125,7145 6140,7145 6148,7145 6156,7145 6163,7146 6171,7146 6179,7146 6194,7148 6202,7148 6210,7148 6217,7149 6225,7149 6233,7149 6241,7149 6256,7149 6264,7149 6272,7149 6279,7149 6287,7149 6295,7150 6302,7150 6318,7150 6326,7150 6333,7150 6341,7150 6349,7151 6357,7151 6372,7151 6380,7151 6387,7152 6395,7152 6403,7152 6411,7152 6418,7152 6434,7152 6442,7152 6449,7152 6457,7153 6465,7153 6472,7153 6480,7153 6496,7154 6503,7154 6511,7154 6519,7154 6527,7154 6534,7155 6550,7155 6557,7156 6565,7156 6573,7156 6581,7156 6588,7156 6596,7156 6612,7157 6619,7157 6627,7157 6635,7157 6642,7157 6650,7157 6658,7157 6673,7158 6681,7158 6689,7158 6696,7158 6704,7158 6712,7158 6727,7158 6735,7158 6743,7158 6751,7158 6758,7158 6766,7159 6774,7159 6789,7159 6797,7160 6805,7160 6812,7160 6820,7160 6828,7160 6836,7161 6851,7161 6859,7161 6866,7162 6874,7162 6882,7162 6890,7162 6905,7162 6913,7162 6921,7162 6928,7162 6936,7162 6944,7163 6951,7163 6967,7163 6975,7163 6982,7163 6990,7163 6998,7163 7006,7164 7013,7164 7029,7164 7036,7164 7044,7164 7052,7164 7060,7165 7067,7165 7083,7165 7091,7165 7098,7165 7106,7165 7114,7165 7121,7165 7129,7165 7145,7165 7152,7166 7160,7166 7168,7166 7176,7166 7183,7166 7191,7166 7206,7166 7214,7166 7222,7166 7230,7166 7237,7166 7245,7167 7261,7167 7268,7167 7276,7168 7284,7168 7291,7168 7299,7168 7307,7168 7322,7169 7330,7169 7338,7169 7346,7169 7353,7169 7361,7170 7369,7170 7384,7170 7392,7170 7400,7170 7407,7170 7415,7170 7423,7171 7438,7171 7446,7171 7454,7171 7461,7171 7469,7171 7477,7171 7485,7172 7500,7172 7508,7172 7516,7173 7523,7173 7531,7173 7539,7173 7546,7173 7562,7173 7570,7173 7577,7173 7585,7174 7593,7174 7600,7174 7616,7174 7624,7174 7631,7174 7639,7174 7647,7174 7655,7174 7662,7175 7678,7175 7685,7175 7693,7175 7701,7175 7709,7175 7716,7176 7724,7176 7740,7176 7747,7176 7755,7176 7763,7176 7770,7176 7778,7176 7794,7177 7801,7177 7809,7177 7817,7177 7825,7177 7832,7177 7840,7177 7855,7178 7863,7178 7871,7178 7879,7178 7886,7178 7894,7178 7902,7178 7917,7179 7925,7179 7933,7179 7940,7179 7948,7179 7956,7179 7964,7179 7979,7179 7987,7179 7995,7179 8002,7180 8010,7180 8018,7180 8033,7180 8041,7180 8049,7180 8056,7181 8064,7181 8072,7181 8080,7181 8095,7181 8103,7181 8110,7181 8118,7181 8126,7181 8134,7182 8141,7182 8157,7182 8165,7182 8172,7182 8180,7182 8188,7182 8195,7182 8211,7183 8219,7183 8226,7183 8234,7183 8242,7183 8250,7184 8257,7184 8273,7184 8280,7184 8288,7184 8296,7184 8304,7184 8311,7184 8319,7185 8335,7185 8342,7185 8350,7185 8358,7185 8365,7185 8373,7185 8389,7185 8396,7186 8404,7186 8412,7186 8420,7186 8427,7186 8435,7186 8450,7186 8458,7186 8466,7186 8474,7187 8481,7187 8489,7187 8497,7187 8512,7187 8520,7187 8528,7187 8535,7187 8543,7188 8551,7188 8566,7188 8574,7188 8582,7188 8589,7188 8597,7188 8605,7188 8613,7188 8628,7188 8636,7188 8644,7188 8651,7188 8659,7189 8667,7189 8674,7189 8690,7189 8698,7189 8705,7189 8713,7189 8721,7189 8729,7189 8744,7190 8752,7190 8759,7190 8767,7190 8775,7190 8783,7190 8790,7190 8806,7191 8814,7191 8821,7191 8829,7191 8837,7191 8844,7191 8852,7191 8868,7191 8875,7191 8883,7191 8891,7191 8899,7191 8906,7191 8922,7192 8929,7192 8937,7192 8945,7192 8953,7192 8960,7192 8968,7192 8984,7192 8991,7193 8999,7193 9007,7193 9014,7193 9022,7193 9030,7193 9045,7193 9053,7194 9061,7194 9069,7194 9076,7194 9084,7194 9099,7194 9107,7194 9115,7194 9123,7194 9130,7194 9138,7195 9146,7195 9161,7195 9169,7195 9177,7195 9184,7195 9192,7195 9200,7195 9208,7195 9223,7195 9231,7195 9239,7195 9246,7196 9254,7196 9262,7196 9277,7196 9285,7196 9293,7196 9300,7196 9308,7196 9316,7196 9323,7196 9339,7196 9347,7196 9354,7196 9362,7196 9370,7197 9378,7197 9385,7197 9401,7197 9408,7197 9416,7197 9424,7197 9432,7197 9439,7197 9455,7197 9463,7197 9470,7197 9478,7197 9486,7198 9493,7198 9501,7198 9517,7198 9524,7198 9532,7198 9540,7198 9548,7198 9555,7198 9563,7198 9578,7198 9586,7198 9594,7198 9602,7198 9609,7198 9617,7199 9633,7199 9640,7199 9648,7199 9656,7199 9663,7199 9671,7199 9679,7199 9694,7200 9702,7200 9710,7200 9718,7200 9725,7200 9733,7200 9741,7200 9756,7200 9764,7201 9772,7201 9779,7201 9787,7201 9795,7201 9810,7201 9818,7201 9826,7201 9833,7201 9841,7201 9849,7201 9857,7201 9872,7201 9880,7202 9888,7202 9895,7202 9903,7202 9911,7202 9918,7202 9934,7202 9942,7202 9949,7202 9957,7202 9965,7203 9973,7203 9988,7203 9996,7203 10003,7203 10011,7203 10019,7204 10027,7204 10034,7204 10050,7204 10058,7204 10065,7204 10073,7204 10081,7204 10088,7204 10096,7204 10112,7205 10119,7205 10127,7205 10135,7205 10143,7205 10150,7205 10166,7206 10173,7206 10181,7206 10189,7206 10197,7206 10204,7206 10212,7206 10227,7206 10235,7206 10243,7206 10251,7206 10258,7206 10266,7206 10274,7206 10289,7207 10297,7207 10305,7207 10312,7207 10320,7207 10328,7207 10343,7207 10351,7207 10359,7207 10367,7207 10374,7207 10382,7207 10390,7208 10405,7208 10413,7208 10421,7208 10428,7208 10436,7208 10444,7208 10452,7208 10467,7209 10475,7209 10482,7209 10490,7210 10498,7210 10506,7210 10521,7210 10529,7210 10537,7210 10544,7211 10552,7211 10560,7211 10567,7211 10583,7211 10591,7211 10598,7211 10606,7211 10614,7211 10622,7211 10629,7212 10645,7212 10652,7212 10660,7212 10668,7212 10676,7212 10683,7212 10699,7212 10707,7213 10714,7213 10722,7213 10730,7213 10737,7213 10745,7213 10761,7213 10768,7213 10776,7213 10784,7213 10792,7213 10799,7213 10807,7213 10822,7213 10830,7213 10838,7213 10846,7214 10853,7214 10861,7214 10877,7214 10884,7214 10892,7214 10900,7214 10907,7214 10915,7214 10923,7214 10938,7214 10946,7214 10954,7214 10962,7214 10969,7215 10977,7215 10985,7215 11000,7215 11008,7215 11016,7215 11023,7215 11031,7215 11039,7215 11047,7215"/>
 <text class="TextShape"><tspan class="TextParagraph" font-family="Liberation Sans, sans-serif" font-size="353px" font-weight="400"><tspan class="TextPosition" x="1004" y="7387"><tspan fill="rgb(0,0,0)" stroke="none">0</tspan></tspan></tspan></text>
 <text class="TextShape"><tspan class="TextParagraph" font-family="Liberation Sans, sans-serif" font-size="353px" font-weight="400"><tspan class="TextPosition" x="416" y="6802"><tspan fill="rgb(0,0,0)" stroke="none">5000</tspan></tspan></tspan></text>
 <text class="TextShape"><tspan class="TextParagraph" font-family="Liberation Sans, sans-serif" font-size="353px" font-weight="400"><tspan class="TextPosition" x="226" y="6218"><tspan fill="rgb(0,0,0)" stroke="none">10000</tspan></tspan></tspan></text>
 <text class="TextShape"><tspan class="TextParagraph" font-family="Liberation Sans, sans-serif" font-size="353px" font-weight="400"><tspan class="TextPosition" x="226" y="5634"><tspan fill="rgb(0,0,0)" stroke="none">15000</tspan></tspan></tspan></text>
 <text class="TextShape"><tspan class="TextParagraph" font-family="Liberation Sans, sans-serif" font-size="353px" font-weight="400"><tspan class="TextPosition" x="226" y="5050"><tspan fill="rgb(0,0,0)" stroke="none">20000</tspan></tspan></tspan></text>
 <text class="TextShape"><tspan class="TextParagraph" font-family="Liberation Sans, sans-serif" font-size="353px" font-weight="400"><tspan class="TextPosition" x="226" y="4466"><tspan fill="rgb(0,0,0)" stroke="none">25000</tspan></tspan></tspan></text>
 <text class="TextShape"><tspan class="TextParagraph" font-family="Liberation Sans, sans-serif" font-size="353px" font-weight="400"><tspan class="TextPosition" x="226" y="3882"><tspan fill="rgb(0,0,0)" stroke="none">30000</tspan></tspan></tspan></text>
 <text class="TextShape"><tspan class="TextParagraph" font-family="Liberation Sans, sans-serif" font-size="353px" font-weight="400"><tspan class="TextPosition" x="226" y="3298"><tspan fill="rgb(0,0,0)" stroke="none">35000</tspan></tspan></tspan></text>
 <text class="TextShape"><tspan class="TextParagraph" font-family="Liberation Sans, sans-serif" font-size="353px" font-weight="400"><tspan class="TextPosition" x="226" y="2714"><tspan fill="rgb(0,0,0)" stroke="none">40000</tspan></tspan></tspan></text>
 <text class="TextShape"><tspan class="TextParagraph" font-family="Liberation Sans, sans-serif" font-size="353px" font-weight="400"><tspan class="TextPosition" x="226" y="2130"><tspan fill="rgb(0,0,0)" stroke="none">45000</tspan></tspan></tspan></text>
 <text class="TextShape"><tspan class="TextParagraph" font-family="Liberation Sans, sans-serif" font-size="353px" font-weight="400"><tspan class="TextPosition" x="226" y="1546"><tspan fill="rgb(0,0,0)" stroke="none">50000</tspan></tspan></tspan></text>
 <text class="TextShape"><tspan class="TextParagraph" font-family="Liberation Sans, sans-serif" font-size="459px" font-weight="400"><tspan class="TextPosition" x="1938" y="841"><tspan fill="rgb(0,0,0)" stroke="none">Total Stars (at end of sample period)</tspan></tspan></tspan></text>
</svg>