<?xml version="1.0" encoding="UTF-8" standalone="no"?>
<!-- Generator: Adobe Illustrator 15.1.0, SVG Export Plug-In . SVG Version: 6.00 Build 0)  -->

<svg
   xmlns:dc="http://purl.org/dc/elements/1.1/"
   xmlns:cc="http://creativecommons.org/ns#"
   xmlns:rdf="http://www.w3.org/1999/02/22-rdf-syntax-ns#"
   xmlns:svg="http://www.w3.org/2000/svg"
   xmlns="http://www.w3.org/2000/svg"
   xmlns:sodipodi="http://sodipodi.sourceforge.net/DTD/sodipodi-0.dtd"
   xmlns:inkscape="http://www.inkscape.org/namespaces/inkscape"
   version="1.1"
   id="Layer_1"
   x="0px"
   y="0px"
   width="1300"
   height="576"
   viewBox="0 0 1300 576"
   enable-background="new 0 0 432 576"
   xml:space="preserve"
   sodipodi:docname="seven_seg.svg"
   inkscape:version="0.92.3 (2405546, 2018-03-11)"><metadata
   id="metadata3841"><rdf:RDF><cc:Work
       rdf:about=""><dc:format>image/svg+xml</dc:format><dc:type
         rdf:resource="http://purl.org/dc/dcmitype/StillImage" /><dc:title></dc:title></cc:Work></rdf:RDF></metadata><defs
   id="defs3839" /><sodipodi:namedview
   pagecolor="#ffffff"
   bordercolor="#666666"
   borderopacity="1"
   objecttolerance="10"
   gridtolerance="10"
   guidetolerance="10"
   inkscape:pageopacity="0"
   inkscape:pageshadow="2"
   inkscape:window-width="1920"
   inkscape:window-height="1001"
   id="namedview3837"
   showgrid="false"
   inkscape:zoom="0.9550852"
   inkscape:cx="535.98611"
   inkscape:cy="438.81096"
   inkscape:window-x="-9"
   inkscape:window-y="-9"
   inkscape:window-maximized="1"
   inkscape:current-layer="g3834" />
<g
   id="g3834">
	<g
   id="g3792">
		<polygon
   stroke-miterlimit="10"
   points="278.759,287.927 242.759,323.928 98.759,323.928 62.759,287.927 98.759,251.927 242.759,251.927 "
   id="polygon3778"
   style="fill:#d1d3d4;stroke:#000000;stroke-width:4;stroke-miterlimit:10" />
		<polygon
   stroke-miterlimit="10"
   points="278.759,520.74 242.759,556.74 98.759,556.74 62.759,520.74 98.759,484.74 242.759,484.74 "
   id="polygon3780"
   style="fill:#d1d3d4;stroke:#000000;stroke-width:4;stroke-miterlimit:10" />
		<polygon
   stroke-miterlimit="10"
   points="287.759,295.928 323.759,331.928 323.759,475.928 287.759,511.928 251.759,475.928 251.759,331.928 "
   id="polygon3782"
   style="fill:#d1d3d4;stroke:#000000;stroke-width:4;stroke-miterlimit:10" />
		
		<polygon
   stroke-miterlimit="10"
   points="278.759,55.26 242.759,91.26 98.759,91.26 62.759,55.26 98.759,19.26 242.759,19.26 "
   id="polygon3786"
   style="fill:#d1d3d4;stroke:#000000;stroke-width:4;stroke-miterlimit:10" />
		<polygon
   stroke-miterlimit="10"
   points="287.759,64.427 323.759,100.427 323.759,244.427 287.759,280.427 251.759,244.427 251.759,100.427 "
   id="polygon3788"
   style="fill:#d1d3d4;stroke:#000000;stroke-width:4;stroke-miterlimit:10" />
		<polygon
   stroke-miterlimit="10"
   points="53.758,64.427 89.759,100.427 89.759,244.427 53.758,280.427 17.758,244.427 17.758,100.427 "
   id="polygon3790"
   style="fill:#d1d3d4;stroke:#000000;stroke-width:4;stroke-miterlimit:10" />
	</g>
	<g
   id="g3822">
		
		
		
		
		
		
		
	</g>
	
<g
   id="g3857"
   transform="translate(314.001)">
		<polygon
   style="fill:#d1d3d4;stroke:#000000;stroke-width:4;stroke-miterlimit:10"
   id="polygon3843"
   points="278.759,287.927 242.759,323.928 98.759,323.928 62.759,287.927 98.759,251.927 242.759,251.927 "
   stroke-miterlimit="10" />
		
		
		<polygon
   style="fill:#d1d3d4;stroke:#000000;stroke-width:4;stroke-miterlimit:10"
   id="polygon3849"
   points="53.758,295.928 89.758,331.928 89.758,475.928 53.758,511.928 17.758,475.928 17.758,331.928 "
   stroke-miterlimit="10" />
		<polygon
   style="fill:#d1d3d4;stroke:#000000;stroke-width:4;stroke-miterlimit:10"
   id="polygon3851"
   points="278.759,55.26 242.759,91.26 98.759,91.26 62.759,55.26 98.759,19.26 242.759,19.26 "
   stroke-miterlimit="10" />
		<polygon
   style="fill:#d1d3d4;stroke:#000000;stroke-width:4;stroke-miterlimit:10"
   id="polygon3853"
   points="287.759,64.427 323.759,100.427 323.759,244.427 287.759,280.427 251.759,244.427 251.759,100.427 "
   stroke-miterlimit="10" />
		<polygon
   style="fill:#d1d3d4;stroke:#000000;stroke-width:4;stroke-miterlimit:10"
   id="polygon3855"
   points="53.758,64.427 89.759,100.427 89.759,244.427 53.758,280.427 17.758,244.427 17.758,100.427 "
   stroke-miterlimit="10" />
	</g><g
   transform="translate(628.002)"
   id="g3873">
		
		
		<polygon
   stroke-miterlimit="10"
   points="251.759,331.928 287.759,295.928 323.759,331.928 323.759,475.928 287.759,511.928 251.759,475.928 "
   id="polygon3863"
   style="fill:#d1d3d4;stroke:#000000;stroke-width:4;stroke-miterlimit:10" />
		
		
		<polygon
   stroke-miterlimit="10"
   points="251.759,100.427 287.759,64.427 323.759,100.427 323.759,244.427 287.759,280.427 251.759,244.427 "
   id="polygon3869"
   style="fill:#d1d3d4;stroke:#000000;stroke-width:4;stroke-miterlimit:10" />
		
	</g><g
   id="g3889"
   transform="translate(942.003)">
		
		<polygon
   style="fill:#d1d3d4;stroke:#000000;stroke-width:4;stroke-miterlimit:10"
   id="polygon3877"
   points="98.759,484.74 242.759,484.74 278.759,520.74 242.759,556.74 98.759,556.74 62.759,520.74 "
   stroke-miterlimit="10" />
		<polygon
   style="fill:#d1d3d4;stroke:#000000;stroke-width:4;stroke-miterlimit:10"
   id="polygon3879"
   points="251.759,475.928 251.759,331.928 287.759,295.928 323.759,331.928 323.759,475.928 287.759,511.928 "
   stroke-miterlimit="10" />
		<polygon
   style="fill:#d1d3d4;stroke:#000000;stroke-width:4;stroke-miterlimit:10"
   id="polygon3881"
   points="17.758,475.928 17.758,331.928 53.758,295.928 89.758,331.928 89.758,475.928 53.758,511.928 "
   stroke-miterlimit="10" />
		<polygon
   style="fill:#d1d3d4;stroke:#000000;stroke-width:4;stroke-miterlimit:10"
   id="polygon3883"
   points="98.759,19.26 242.759,19.26 278.759,55.26 242.759,91.26 98.759,91.26 62.759,55.26 "
   stroke-miterlimit="10" />
		<polygon
   style="fill:#d1d3d4;stroke:#000000;stroke-width:4;stroke-miterlimit:10"
   id="polygon3885"
   points="251.759,244.427 251.759,100.427 287.759,64.427 323.759,100.427 323.759,244.427 287.759,280.427 "
   stroke-miterlimit="10" />
		<polygon
   style="fill:#d1d3d4;stroke:#000000;stroke-width:4;stroke-miterlimit:10"
   id="polygon3887"
   points="17.758,244.427 17.758,100.427 53.758,64.427 89.759,100.427 89.759,244.427 53.758,280.427 "
   stroke-miterlimit="10" />
	</g><path
   style="fill:#ffffff;stroke-width:1.04702699"
   d="m 82.514744,304.47402 -16.4784,-16.50258 17.025743,-17.00229 17.025743,-17.00228 h 70.65121 70.65121 l 17.02574,17.00228 17.02574,17.00229 -16.47839,16.50258 -16.47841,16.50258 H 170.73904 98.993144 Z"
   id="path3907"
   inkscape:connector-curvature="0" /><path
   style="fill:#000080;stroke-width:1.04702699"
   d="M 270.97996,260.49924 254.5012,243.9963 v -71.1982 -71.19821 l 16.75243,-16.727882 16.75243,-16.727887 16.75244,16.727887 16.75243,16.727882 v 70.6985 70.69849 l -17.02611,17.00266 -17.0261,17.00264 z"
   id="path3909"
   inkscape:connector-curvature="0" /><path
   style="fill:#000080;stroke-width:1.04702699"
   d="M 83.312284,71.78417 66.584398,55.031738 83.312284,38.279306 100.04017,21.526874 h 70.69887 70.69886 l 16.47841,16.502582 c 9.06312,9.07642 16.4784,16.934117 16.4784,17.461549 0,0.527432 -7.16547,8.17846 -15.92327,17.002283 l -15.92327,16.043314 h -71.254 -71.254 z"
   id="path3911"
   inkscape:connector-curvature="0" /><path
   style="fill:#000080;stroke-width:1.04702699"
   d="M 36.969435,259.97572 19.96715,242.94998 V 172.27493 101.59989 L 36.719582,84.872008 53.472014,68.144121 70.224447,84.872008 86.976879,101.59989 v 71.22239 71.22238 L 70.4743,260.52306 53.971721,277.00145 Z"
   id="path3913"
   inkscape:connector-curvature="0" /><path
   style="fill:#000080;stroke-width:1.04702699"
   d="M 83.312284,537.71119 66.584398,520.95876 83.312284,504.20632 100.04017,487.45389 h 71.254 71.254 l 15.92327,16.04332 c 8.7578,8.82382 15.92327,16.48573 15.92327,17.02646 0,0.54073 -7.42616,8.39843 -16.50258,17.46155 l -16.50258,16.4784 h -70.67469 -70.67469 z"
   id="path3917"
   inkscape:connector-curvature="0" /><path
   style="fill:#000080;stroke-width:1.04702699"
   d="M 270.97996,491.89221 254.5012,475.38927 v -71.1982 -71.19821 l 16.75243,-16.72788 16.75243,-16.72789 16.75244,16.72789 16.75243,16.72788 v 70.6985 70.69849 l -17.02611,17.00265 -17.0261,17.00264 z"
   id="path3919"
   inkscape:connector-curvature="0" /><path
   style="fill:#000080;stroke-width:1.04702699"
   d="m 978.76986,259.45186 -16.4784,-16.50258 v -70.6747 -70.67469 l 16.75243,-16.727882 16.75243,-16.727887 16.75248,16.727887 16.7524,16.727882 v 70.69887 70.69887 l -16.5026,16.4784 c -9.0764,9.06312 -16.73832,16.47841 -17.02646,16.47841 -0.28813,0 -7.93916,-7.42617 -17.00228,-16.50258 z"
   id="path3921"
   inkscape:connector-curvature="0" /><path
   style="fill:#000080;stroke-width:1.04702699"
   d="m 1024.8391,72.034023 -16.4784,-16.502579 17.0257,-17.002285 17.0257,-17.002285 h 70.6751 70.675 l 16.7279,16.752432 16.7279,16.752432 -16.7279,16.752432 -16.7279,16.752432 h -71.2224 -71.2223 z"
   id="path3923"
   inkscape:connector-curvature="0" /><path
   style="fill:#000080;stroke-width:1.04702699"
   d="m 1212.7808,259.97572 -17.0023,-17.02574 v -70.67467 -70.67467 l 17.0261,-17.002649 17.0261,-17.002646 16.4787,16.502941 16.4788,16.502944 v 71.72171 71.72172 l -16.5026,16.4784 -16.5026,16.47839 z"
   id="path3925"
   inkscape:connector-curvature="0" /><path
   style="fill:#000080;stroke-width:1.04702699"
   d="m 1212.7808,491.36868 -17.0023,-17.02573 V 403.6679 332.99286 l 16.5026,-16.4784 c 9.0764,-9.06312 17.0006,-16.4784 17.6094,-16.4784 0.6087,0 8.2597,7.24696 17.0022,16.10436 l 15.8955,16.10436 v 71.59642 71.59642 l -16.5026,16.47841 -16.5026,16.47839 z"
   id="path3927"
   inkscape:connector-curvature="0" /><path
   style="fill:#000080;stroke-width:1.04702699"
   d="m 1025.3626,537.43752 -17.0027,-17.02611 16.503,-16.47876 16.5029,-16.47876 h 71.1982 71.1982 l 16.7279,16.75243 16.7279,16.75244 -16.7279,16.75243 -16.7279,16.75243 h -70.6985 -70.6985 z"
   id="path3929"
   inkscape:connector-curvature="0" /><path
   style="fill:#ffffff;stroke-width:1.04702699"
   d="m 978.78213,490.96711 -16.49067,-16.34388 v -70.81518 -70.81519 l 16.75243,-16.72788 16.75243,-16.72789 16.75248,16.72789 16.7524,16.72788 v 70.69887 70.69887 l -16.5026,16.4784 c -9.0764,9.06312 -16.7328,16.47022 -17.01419,16.4602 -0.28138,-0.0105 -7.93241,-7.37296 -17.00228,-16.36209 z"
   id="path3931"
   inkscape:connector-curvature="0" /><path
   style="fill:#ffffff;stroke-width:1.04702699"
   d="M 270.97996,259.45221 254.5012,242.94928 V 172.7981 102.64692 l 16.75243,-16.727885 16.75243,-16.727887 16.75244,16.727887 16.75243,16.727885 v 69.65147 69.65147 l -17.02611,17.00265 -17.0261,17.00264 z"
   id="path3933"
   inkscape:connector-curvature="0" /><path
   style="fill:#000080;stroke-width:1.04702699"
   d="M 978.45397,490.42935 962.29146,474.55833 V 403.7756 332.99286 l 16.75243,-16.72788 16.75243,-16.72789 16.75248,16.72789 16.7524,16.72788 v 70.80384 70.80384 l -16.2177,15.84991 c -8.9198,8.71746 -16.72383,15.84993 -17.34238,15.84993 -0.61855,0 -8.39777,-7.14196 -17.28715,-15.87103 z"
   id="path3935"
   inkscape:connector-curvature="0" /><path
   style="fill:#000080;stroke-width:1.04702699"
   d="m 83.037858,304.99716 c -8.774971,-8.7887 -15.954492,-16.4506 -15.954492,-17.02647 0,-0.57586 7.426161,-8.4623 16.502582,-17.52542 l 16.502582,-16.4784 h 70.67469 70.67468 l 16.47841,16.50258 c 9.06312,9.07642 16.4784,16.97409 16.4784,17.55037 0,0.57629 -7.19075,8.22731 -15.97944,17.00228 l -15.97944,15.9545 H 170.71409 98.992351 Z"
   id="path3937"
   inkscape:connector-curvature="0" /><path
   style="fill:#000080;stroke-width:1.04702699"
   d="M 270.97996,258.40519 254.5012,241.90225 V 172.7981 103.69395 l 16.75243,-16.727888 16.75243,-16.727887 16.75244,16.727887 16.75243,16.727888 v 68.60444 68.60444 l -17.02611,17.00265 -17.0261,17.00264 z"
   id="path3939"
   inkscape:connector-curvature="0" /></g>
</svg>