<?xml version="1.0" encoding="UTF-8" standalone="no"?>
<!DOCTYPE svg PUBLIC "-//W3C//DTD SVG 1.1//EN"
 "http://www.w3.org/Graphics/SVG/1.1/DTD/svg11.dtd">
<!-- Generated by graphviz version 2.40.1 (20161225.0304)
 -->
<!-- Title: Calc Pages: 1 -->
<svg width="174pt" height="188pt"
 viewBox="0.00 0.00 174.00 188.00" xmlns="http://www.w3.org/2000/svg" xmlns:xlink="http://www.w3.org/1999/xlink">
<g id="graph0" class="graph" transform="scale(1 1) rotate(0) translate(4 184)">
<title>Calc</title>
<polygon fill="#ffffff" stroke="transparent" points="-4,4 -4,-184 170,-184 170,4 -4,4"/>
<!-- e2 -->
<g id="node1" class="node">
<title>e2</title>
<ellipse fill="#fbb4ae" stroke="#fbb4ae" cx="65" cy="-162" rx="31.339" ry="18"/>
<text text-anchor="middle" x="65" y="-157.8" font-family="Helvetica,sans-Serif" font-size="14.00" fill="#000000">ADD</text>
</g>
<!-- 1 -->
<g id="node2" class="node">
<title>1</title>
<ellipse fill="#b3cde3" stroke="#b3cde3" cx="27" cy="-90" rx="27" ry="18"/>
<text text-anchor="middle" x="27" y="-85.8" font-family="Helvetica,sans-Serif" font-size="14.00" fill="#000000">1</text>
</g>
<!-- e2&#45;&gt;1 -->
<g id="edge1" class="edge">
<title>e2&#45;&gt;1</title>
<path fill="none" stroke="#000000" d="M55.8013,-144.5708C51.3203,-136.0807 45.8379,-125.6929 40.8634,-116.2674"/>
<polygon fill="#000000" stroke="#000000" points="43.877,-114.4789 36.114,-107.2687 37.6863,-117.7462 43.877,-114.4789"/>
</g>
<!-- e1 -->
<g id="node3" class="node">
<title>e1</title>
<ellipse fill="#fbb4ae" stroke="#fbb4ae" cx="103" cy="-90" rx="31.339" ry="18"/>
<text text-anchor="middle" x="103" y="-85.8" font-family="Helvetica,sans-Serif" font-size="14.00" fill="#000000">MUL</text>
</g>
<!-- e2&#45;&gt;e1 -->
<g id="edge2" class="edge">
<title>e2&#45;&gt;e1</title>
<path fill="none" stroke="#000000" d="M74.1987,-144.5708C78.6797,-136.0807 84.1621,-125.6929 89.1366,-116.2674"/>
<polygon fill="#000000" stroke="#000000" points="92.3137,-117.7462 93.886,-107.2687 86.123,-114.4789 92.3137,-117.7462"/>
</g>
<!-- 2 -->
<g id="node4" class="node">
<title>2</title>
<ellipse fill="#b3cde3" stroke="#b3cde3" cx="67" cy="-18" rx="27" ry="18"/>
<text text-anchor="middle" x="67" y="-13.8" font-family="Helvetica,sans-Serif" font-size="14.00" fill="#000000">2</text>
</g>
<!-- e1&#45;&gt;2 -->
<g id="edge3" class="edge">
<title>e1&#45;&gt;2</title>
<path fill="none" stroke="#000000" d="M94.2854,-72.5708C90.0403,-64.0807 84.8464,-53.6929 80.1337,-44.2674"/>
<polygon fill="#000000" stroke="#000000" points="83.237,-42.6477 75.6343,-35.2687 76.976,-45.7782 83.237,-42.6477"/>
</g>
<!-- 3 -->
<g id="node5" class="node">
<title>3</title>
<ellipse fill="#b3cde3" stroke="#b3cde3" cx="139" cy="-18" rx="27" ry="18"/>
<text text-anchor="middle" x="139" y="-13.8" font-family="Helvetica,sans-Serif" font-size="14.00" fill="#000000">3</text>
</g>
<!-- e1&#45;&gt;3 -->
<g id="edge4" class="edge">
<title>e1&#45;&gt;3</title>
<path fill="none" stroke="#000000" d="M111.7146,-72.5708C115.9597,-64.0807 121.1536,-53.6929 125.8663,-44.2674"/>
<polygon fill="#000000" stroke="#000000" points="129.024,-45.7782 130.3657,-35.2687 122.763,-42.6477 129.024,-45.7782"/>
</g>
</g>
</svg>