<?xml version="1.0" encoding="UTF-8" standalone="no"?>
<!DOCTYPE svg PUBLIC "-//W3C//DTD SVG 1.1//EN"
 "http://www.w3.org/Graphics/SVG/1.1/DTD/svg11.dtd">
<!-- Generated by graphviz version 2.40.1 (20161225.0304)
 -->
<!-- Title: G Pages: 1 -->
<svg width="348pt" height="459pt"
 viewBox="0.00 0.00 348.00 459.00" xmlns="http://www.w3.org/2000/svg" xmlns:xlink="http://www.w3.org/1999/xlink">
<g id="graph0" class="graph" transform="scale(1 1) rotate(0) translate(4 455)">
<title>G</title>
<polygon fill="#ffffff" stroke="transparent" points="-4,4 -4,-455 344,-455 344,4 -4,4"/>
<g id="clust2" class="cluster">
<title>cluster_0</title>
<polygon fill="none" stroke="transparent" points="8,-151 8,-238 78,-238 78,-151 8,-151"/>
<text text-anchor="middle" x="43" y="-222.8" font-family="Times,serif" font-size="14.00" fill="#000000">Interface</text>
</g>
<g id="clust4" class="cluster">
<title>cluster_1</title>
<polygon fill="none" stroke="transparent" points="91.5,-134 91.5,-396 182.5,-396 182.5,-134 91.5,-134"/>
<text text-anchor="middle" x="137" y="-380.8" font-family="Times,serif" font-size="14.00" fill="#000000">Method Set</text>
</g>
<g id="clust5" class="cluster">
<title>cluster_itab</title>
<polygon fill="#9aff9a" stroke="transparent" points="99.5,-142 99.5,-365 174.5,-365 174.5,-142 99.5,-142"/>
<text text-anchor="middle" x="137" y="-349.8" font-family="Times,serif" font-size="14.00" fill="#000000">struct itab</text>
</g>
<g id="clust6" class="cluster">
<title>cluster_2</title>
<polygon fill="none" stroke="transparent" points="90,-8 90,-126 185,-126 185,-8 90,-8"/>
<text text-anchor="middle" x="137.5" y="-110.8" font-family="Times,serif" font-size="14.00" fill="#000000">Value</text>
</g>
<g id="clust7" class="cluster">
<title>cluster_value</title>
<polygon fill="#ff83fa" stroke="transparent" points="98,-16 98,-95 177,-95 177,-16 98,-16"/>
<text text-anchor="middle" x="137.5" y="-79.8" font-family="Times,serif" font-size="14.00" fill="#000000">0xf7fc4380</text>
</g>
<g id="clust8" class="cluster">
<title>cluster_3</title>
<polygon fill="none" stroke="transparent" points="193,-203 193,-443 332,-443 332,-203 193,-203"/>
<text text-anchor="middle" x="262.5" y="-427.8" font-family="Times,serif" font-size="14.00" fill="#000000">Type</text>
</g>
<g id="clust9" class="cluster">
<title>cluster_type</title>
<polygon fill="#add8e6" stroke="transparent" points="201,-211 201,-412 324,-412 324,-211 201,-211"/>
<text text-anchor="middle" x="262.5" y="-396.8" font-family="Times,serif" font-size="14.00" fill="#000000">struct _type</text>
</g>
<!-- iface -->
<g id="node1" class="node">
<title>iface</title>
<polygon fill="none" stroke="#000000" points="16,-160 16,-206 70,-206 70,-160 16,-160"/>
<text text-anchor="middle" x="43" y="-190.8" font-family="Times,serif" font-size="14.00" fill="#000000">*tab</text>
<polyline fill="none" stroke="#000000" points="16,-183 70,-183 "/>
<text text-anchor="middle" x="43" y="-167.8" font-family="Times,serif" font-size="14.00" fill="#000000">*data</text>
</g>
<!-- itable -->
<g id="node2" class="node">
<title>itable</title>
<polygon fill="none" stroke="#000000" points="107.5,-150 107.5,-334 166.5,-334 166.5,-150 107.5,-150"/>
<text text-anchor="middle" x="137" y="-318.8" font-family="Times,serif" font-size="14.00" fill="#000000">*inter</text>
<polyline fill="none" stroke="#000000" points="107.5,-311 166.5,-311 "/>
<text text-anchor="middle" x="137" y="-295.8" font-family="Times,serif" font-size="14.00" fill="#000000">*_type</text>
<polyline fill="none" stroke="#000000" points="107.5,-288 166.5,-288 "/>
<text text-anchor="middle" x="137" y="-272.8" font-family="Times,serif" font-size="14.00" fill="#000000">hash</text>
<polyline fill="none" stroke="#000000" points="107.5,-265 166.5,-265 "/>
<text text-anchor="middle" x="137" y="-249.8" font-family="Times,serif" font-size="14.00" fill="#000000">...</text>
<polyline fill="none" stroke="#000000" points="107.5,-242 166.5,-242 "/>
<text text-anchor="middle" x="137" y="-226.8" font-family="Times,serif" font-size="14.00" fill="#000000">*fun[0]</text>
<polyline fill="none" stroke="#000000" points="107.5,-219 166.5,-219 "/>
<text text-anchor="middle" x="137" y="-203.8" font-family="Times,serif" font-size="14.00" fill="#000000">*fun[1]</text>
<polyline fill="none" stroke="#000000" points="107.5,-196 166.5,-196 "/>
<text text-anchor="middle" x="137" y="-180.8" font-family="Times,serif" font-size="14.00" fill="#000000">...</text>
<polyline fill="none" stroke="#000000" points="107.5,-173 166.5,-173 "/>
<text text-anchor="middle" x="137" y="-157.8" font-family="Times,serif" font-size="14.00" fill="#000000">*fun[n]</text>
</g>
<!-- iface&#45;&gt;itable -->
<g id="edge2" class="edge">
<title>iface:iftab&#45;&gt;itable:itab</title>
<path fill="none" stroke="#000000" d="M70,-195C125.2855,-195 57.9775,-306.5645 96.9811,-321.3816"/>
<polygon fill="#000000" stroke="#000000" points="96.5698,-324.8605 107,-323 97.6861,-317.95 96.5698,-324.8605"/>
</g>
<!-- object -->
<g id="node3" class="node">
<title>object</title>
<polygon fill="none" stroke="#000000" points="106,-25 106,-63 168,-63 168,-25 106,-25"/>
<text text-anchor="middle" x="137" y="-47.8" font-family="Times,serif" font-size="14.00" fill="#000000">runtime</text>
<text text-anchor="middle" x="137" y="-32.8" font-family="Times,serif" font-size="14.00" fill="#000000">object</text>
</g>
<!-- iface&#45;&gt;object -->
<g id="edge3" class="edge">
<title>iface:data&#45;&gt;object</title>
<path fill="none" stroke="#000000" d="M70,-171C72.7675,-171 103.9507,-109.8577 122.7844,-72.421"/>
<polygon fill="#000000" stroke="#000000" points="126.1488,-73.5204 127.5085,-63.0132 119.8932,-70.3791 126.1488,-73.5204"/>
</g>
<!-- type -->
<g id="node4" class="node">
<title>type</title>
<polygon fill="none" stroke="#000000" points="209,-219.5 209,-380.5 316,-380.5 316,-219.5 209,-219.5"/>
<text text-anchor="middle" x="262.5" y="-365.3" font-family="Times,serif" font-size="14.00" fill="#000000">size</text>
<polyline fill="none" stroke="#000000" points="209,-357.5 316,-357.5 "/>
<text text-anchor="middle" x="262.5" y="-342.3" font-family="Times,serif" font-size="14.00" fill="#000000">...</text>
<polyline fill="none" stroke="#000000" points="209,-334.5 316,-334.5 "/>
<text text-anchor="middle" x="262.5" y="-319.3" font-family="Times,serif" font-size="14.00" fill="#000000">kind</text>
<polyline fill="none" stroke="#000000" points="209,-311.5 316,-311.5 "/>
<text text-anchor="middle" x="262.5" y="-296.3" font-family="Times,serif" font-size="14.00" fill="#000000">...</text>
<polyline fill="none" stroke="#000000" points="209,-288.5 316,-288.5 "/>
<text text-anchor="middle" x="262.5" y="-273.3" font-family="Times,serif" font-size="14.00" fill="#000000">str (name)</text>
<polyline fill="none" stroke="#000000" points="209,-265.5 316,-265.5 "/>
<text text-anchor="middle" x="262.5" y="-250.3" font-family="Times,serif" font-size="14.00" fill="#000000">ptr</text>
<polyline fill="none" stroke="#000000" points="209,-242.5 316,-242.5 "/>
<text text-anchor="middle" x="262.5" y="-227.3" font-family="Times,serif" font-size="14.00" fill="#000000">[]fields (structs)</text>
</g>
<!-- itable&#45;&gt;type -->
<g id="edge1" class="edge">
<title>itable:type&#45;&gt;type</title>
<path fill="none" stroke="#000000" d="M167,-300C177.3028,-300 188.2309,-300 198.8736,-300"/>
<polygon fill="#000000" stroke="#000000" points="198.9602,-303.5001 208.9602,-300 198.9602,-296.5001 198.9602,-303.5001"/>
</g>
</g>
</svg>
