<?xml version="1.0" encoding="UTF-8" standalone="no"?>
<!DOCTYPE svg PUBLIC "-//W3C//DTD SVG 1.1//EN"
 "http://www.w3.org/Graphics/SVG/1.1/DTD/svg11.dtd">
<!-- Generated by graphviz version 2.40.1 (20161225.0304)
 -->
<!-- Title: G Pages: 1 -->
<svg width="436pt" height="381pt"
 viewBox="0.00 0.00 436.00 381.00" xmlns="http://www.w3.org/2000/svg" xmlns:xlink="http://www.w3.org/1999/xlink">
<g id="graph0" class="graph" transform="scale(1 1) rotate(0) translate(4 377)">
<title>G</title>
<polygon fill="#ffffff" stroke="transparent" points="-4,4 -4,-377 432,-377 432,4 -4,4"/>
<g id="clust2" class="cluster">
<title>cluster_0</title>
<polygon fill="none" stroke="#000000" points="4,-124 4,-211 82,-211 82,-124 4,-124"/>
<text text-anchor="middle" x="43" y="-195.8" font-family="Times,serif" font-size="14.00" fill="#000000">struct iface</text>
</g>
<g id="clust3" class="cluster">
<title>cluster_1</title>
<polygon fill="#9aff9a" stroke="#000000" points="101.5,-95 101.5,-318 274.5,-318 274.5,-95 101.5,-95"/>
<text text-anchor="middle" x="188" y="-302.8" font-family="Times,serif" font-size="14.00" fill="#000000">struct itab (METHOD SET)</text>
</g>
<g id="clust4" class="cluster">
<title>cluster_2</title>
<polygon fill="#ff83fa" stroke="#000000" points="118,-8 118,-87 258,-87 258,-8 118,-8"/>
<text text-anchor="middle" x="188" y="-71.8" font-family="Times,serif" font-size="14.00" fill="#000000">0xf7fc4380 (VALUE)</text>
</g>
<g id="clust5" class="cluster">
<title>cluster_3</title>
<polygon fill="#add8e6" stroke="#000000" points="294,-164 294,-365 423,-365 423,-164 294,-164"/>
<text text-anchor="middle" x="358.5" y="-349.8" font-family="Times,serif" font-size="14.00" fill="#000000">struct _type (TYPE)</text>
</g>
<!-- iface -->
<g id="node1" class="node">
<title>iface</title>
<polygon fill="none" stroke="#000000" points="16,-133 16,-179 70,-179 70,-133 16,-133"/>
<text text-anchor="middle" x="43" y="-163.8" font-family="Times,serif" font-size="14.00" fill="#000000">*tab</text>
<polyline fill="none" stroke="#000000" points="16,-156 70,-156 "/>
<text text-anchor="middle" x="43" y="-140.8" font-family="Times,serif" font-size="14.00" fill="#000000">*data</text>
</g>
<!-- itable -->
<g id="node2" class="node">
<title>itable</title>
<polygon fill="none" stroke="#000000" points="158.5,-103 158.5,-287 217.5,-287 217.5,-103 158.5,-103"/>
<text text-anchor="middle" x="188" y="-271.8" font-family="Times,serif" font-size="14.00" fill="#000000">*itab</text>
<polyline fill="none" stroke="#000000" points="158.5,-264 217.5,-264 "/>
<text text-anchor="middle" x="188" y="-248.8" font-family="Times,serif" font-size="14.00" fill="#000000">*_type</text>
<polyline fill="none" stroke="#000000" points="158.5,-241 217.5,-241 "/>
<text text-anchor="middle" x="188" y="-225.8" font-family="Times,serif" font-size="14.00" fill="#000000">*link</text>
<polyline fill="none" stroke="#000000" points="158.5,-218 217.5,-218 "/>
<text text-anchor="middle" x="188" y="-202.8" font-family="Times,serif" font-size="14.00" fill="#000000">...</text>
<polyline fill="none" stroke="#000000" points="158.5,-195 217.5,-195 "/>
<text text-anchor="middle" x="188" y="-179.8" font-family="Times,serif" font-size="14.00" fill="#000000">*fun[0]</text>
<polyline fill="none" stroke="#000000" points="158.5,-172 217.5,-172 "/>
<text text-anchor="middle" x="188" y="-156.8" font-family="Times,serif" font-size="14.00" fill="#000000">*fun[1]</text>
<polyline fill="none" stroke="#000000" points="158.5,-149 217.5,-149 "/>
<text text-anchor="middle" x="188" y="-133.8" font-family="Times,serif" font-size="14.00" fill="#000000">...</text>
<polyline fill="none" stroke="#000000" points="158.5,-126 217.5,-126 "/>
<text text-anchor="middle" x="188" y="-110.8" font-family="Times,serif" font-size="14.00" fill="#000000">*fun[n]</text>
</g>
<!-- iface&#45;&gt;itable -->
<g id="edge2" class="edge">
<title>iface:iftab&#45;&gt;itable:itab</title>
<path fill="none" stroke="#000000" d="M70,-168C128.1678,-168 100.0641,-263.3178 147.7851,-274.8602"/>
<polygon fill="#000000" stroke="#000000" points="147.6735,-278.3694 158,-276 148.4498,-271.4126 147.6735,-278.3694"/>
</g>
<!-- object -->
<g id="node3" class="node">
<title>object</title>
<polygon fill="none" stroke="#000000" points="157,-17 157,-55 219,-55 219,-17 157,-17"/>
<text text-anchor="middle" x="188" y="-39.8" font-family="Times,serif" font-size="14.00" fill="#000000">runtime</text>
<text text-anchor="middle" x="188" y="-24.8" font-family="Times,serif" font-size="14.00" fill="#000000">object</text>
</g>
<!-- iface&#45;&gt;object -->
<g id="edge3" class="edge">
<title>iface:data&#45;&gt;object</title>
<path fill="none" stroke="#000000" d="M70,-144C97.4019,-144 82.4178,-110.6656 101.5,-91 114.7603,-77.3343 132.0472,-65.4839 147.6781,-56.3187"/>
<polygon fill="#000000" stroke="#000000" points="149.6705,-59.2127 156.6471,-51.2392 146.2208,-53.1217 149.6705,-59.2127"/>
</g>
<!-- type -->
<g id="node4" class="node">
<title>type</title>
<polygon fill="none" stroke="#000000" points="305,-172.5 305,-333.5 412,-333.5 412,-172.5 305,-172.5"/>
<text text-anchor="middle" x="358.5" y="-318.3" font-family="Times,serif" font-size="14.00" fill="#000000">size</text>
<polyline fill="none" stroke="#000000" points="305,-310.5 412,-310.5 "/>
<text text-anchor="middle" x="358.5" y="-295.3" font-family="Times,serif" font-size="14.00" fill="#000000">...</text>
<polyline fill="none" stroke="#000000" points="305,-287.5 412,-287.5 "/>
<text text-anchor="middle" x="358.5" y="-272.3" font-family="Times,serif" font-size="14.00" fill="#000000">kind</text>
<polyline fill="none" stroke="#000000" points="305,-264.5 412,-264.5 "/>
<text text-anchor="middle" x="358.5" y="-249.3" font-family="Times,serif" font-size="14.00" fill="#000000">...</text>
<polyline fill="none" stroke="#000000" points="305,-241.5 412,-241.5 "/>
<text text-anchor="middle" x="358.5" y="-226.3" font-family="Times,serif" font-size="14.00" fill="#000000">str (name)</text>
<polyline fill="none" stroke="#000000" points="305,-218.5 412,-218.5 "/>
<text text-anchor="middle" x="358.5" y="-203.3" font-family="Times,serif" font-size="14.00" fill="#000000">ptr</text>
<polyline fill="none" stroke="#000000" points="305,-195.5 412,-195.5 "/>
<text text-anchor="middle" x="358.5" y="-180.3" font-family="Times,serif" font-size="14.00" fill="#000000">[]fields (structs)</text>
</g>
<!-- itable&#45;&gt;type -->
<g id="edge1" class="edge">
<title>itable:type&#45;&gt;type</title>
<path fill="none" stroke="#000000" d="M218,-253C243.0784,-253 270.6747,-253 294.7216,-253"/>
<polygon fill="#000000" stroke="#000000" points="294.7924,-256.5001 304.7924,-253 294.7924,-249.5001 294.7924,-256.5001"/>
</g>
</g>
</svg>
