<?xml version="1.0" encoding="UTF-8" standalone="no"?>
<!DOCTYPE svg PUBLIC "-//W3C//DTD SVG 1.1//EN"
 "http://www.w3.org/Graphics/SVG/1.1/DTD/svg11.dtd">
<!-- Generated by graphviz version 2.40.1 (20161225.0304)
 -->
<!-- Title: G Pages: 1 -->
<svg width="551pt" height="298pt"
 viewBox="0.00 0.00 551.00 298.00" xmlns="http://www.w3.org/2000/svg" xmlns:xlink="http://www.w3.org/1999/xlink">
<g id="graph0" class="graph" transform="scale(1 1) rotate(0) translate(4 294)">
<title>G</title>
<polygon fill="#ffffff" stroke="transparent" points="-4,4 -4,-294 547,-294 547,4 -4,4"/>
<g id="clust2" class="cluster">
<title>cluster_0</title>
<polygon fill="#c0c0c0" stroke="#000000" points="105.5,-154 105.5,-241 183.5,-241 183.5,-154 105.5,-154"/>
<text text-anchor="middle" x="144.5" y="-225.8" font-family="Times,serif" font-size="14.00" fill="#000000">struct iface</text>
</g>
<g id="clust3" class="cluster">
<title>cluster_1</title>
<polygon fill="#9aff9a" stroke="#000000" points="317,-12 317,-235 392,-235 392,-12 317,-12"/>
<text text-anchor="middle" x="354.5" y="-219.8" font-family="Times,serif" font-size="14.00" fill="#000000">struct itab</text>
</g>
<g id="clust4" class="cluster">
<title>cluster_3</title>
<polygon fill="#c0c0c0" stroke="#000000" points="412,-81 412,-282 535,-282 535,-81 412,-81"/>
<text text-anchor="middle" x="473.5" y="-266.8" font-family="Times,serif" font-size="14.00" fill="#000000">struct _type</text>
</g>
<!-- iface -->
<g id="node1" class="node">
<title>iface</title>
<polygon fill="none" stroke="#000000" points="117.5,-163 117.5,-209 171.5,-209 171.5,-163 117.5,-163"/>
<text text-anchor="middle" x="144.5" y="-193.8" font-family="Times,serif" font-size="14.00" fill="#000000">*tab</text>
<polyline fill="none" stroke="#000000" points="117.5,-186 171.5,-186 "/>
<text text-anchor="middle" x="144.5" y="-170.8" font-family="Times,serif" font-size="14.00" fill="#000000">*data</text>
</g>
<!-- itable -->
<g id="node2" class="node">
<title>itable</title>
<polygon fill="none" stroke="#000000" points="325,-20 325,-204 384,-204 384,-20 325,-20"/>
<text text-anchor="middle" x="354.5" y="-188.8" font-family="Times,serif" font-size="14.00" fill="#000000">*inter</text>
<polyline fill="none" stroke="#000000" points="325,-181 384,-181 "/>
<text text-anchor="middle" x="354.5" y="-165.8" font-family="Times,serif" font-size="14.00" fill="#000000">*_type</text>
<polyline fill="none" stroke="#000000" points="325,-158 384,-158 "/>
<text text-anchor="middle" x="354.5" y="-142.8" font-family="Times,serif" font-size="14.00" fill="#000000">hash</text>
<polyline fill="none" stroke="#000000" points="325,-135 384,-135 "/>
<text text-anchor="middle" x="354.5" y="-119.8" font-family="Times,serif" font-size="14.00" fill="#000000">...</text>
<polyline fill="none" stroke="#000000" points="325,-112 384,-112 "/>
<text text-anchor="middle" x="354.5" y="-96.8" font-family="Times,serif" font-size="14.00" fill="#000000">*fun[0]</text>
<polyline fill="none" stroke="#000000" points="325,-89 384,-89 "/>
<text text-anchor="middle" x="354.5" y="-73.8" font-family="Times,serif" font-size="14.00" fill="#000000">*fun[1]</text>
<polyline fill="none" stroke="#000000" points="325,-66 384,-66 "/>
<text text-anchor="middle" x="354.5" y="-50.8" font-family="Times,serif" font-size="14.00" fill="#000000">...</text>
<polyline fill="none" stroke="#000000" points="325,-43 384,-43 "/>
<text text-anchor="middle" x="354.5" y="-27.8" font-family="Times,serif" font-size="14.00" fill="#000000">*fun[n]</text>
</g>
<!-- iface&#45;&gt;itable -->
<g id="edge5" class="edge">
<title>iface:iftab&#45;&gt;itable:itab</title>
<path fill="none" stroke="#000000" d="M171.5,-198C235.9484,-198 254.5363,-193.5134 314.1478,-193.0402"/>
<polygon fill="#000000" stroke="#000000" points="314.5137,-196.5389 324.5,-193 314.4864,-189.539 314.5137,-196.5389"/>
</g>
<!-- type -->
<g id="node3" class="node">
<title>type</title>
<polygon fill="none" stroke="#000000" points="420,-89.5 420,-250.5 527,-250.5 527,-89.5 420,-89.5"/>
<text text-anchor="middle" x="473.5" y="-235.3" font-family="Times,serif" font-size="14.00" fill="#000000">size</text>
<polyline fill="none" stroke="#000000" points="420,-227.5 527,-227.5 "/>
<text text-anchor="middle" x="473.5" y="-212.3" font-family="Times,serif" font-size="14.00" fill="#000000">...</text>
<polyline fill="none" stroke="#000000" points="420,-204.5 527,-204.5 "/>
<text text-anchor="middle" x="473.5" y="-189.3" font-family="Times,serif" font-size="14.00" fill="#000000">kind</text>
<polyline fill="none" stroke="#000000" points="420,-181.5 527,-181.5 "/>
<text text-anchor="middle" x="473.5" y="-166.3" font-family="Times,serif" font-size="14.00" fill="#000000">...</text>
<polyline fill="none" stroke="#000000" points="420,-158.5 527,-158.5 "/>
<text text-anchor="middle" x="473.5" y="-143.3" font-family="Times,serif" font-size="14.00" fill="#000000">str (name)</text>
<polyline fill="none" stroke="#000000" points="420,-135.5 527,-135.5 "/>
<text text-anchor="middle" x="473.5" y="-120.3" font-family="Times,serif" font-size="14.00" fill="#000000">ptr</text>
<polyline fill="none" stroke="#000000" points="420,-112.5 527,-112.5 "/>
<text text-anchor="middle" x="473.5" y="-97.3" font-family="Times,serif" font-size="14.00" fill="#000000">[]fields (structs)</text>
</g>
<!-- itable&#45;&gt;type -->
<g id="edge4" class="edge">
<title>itable:type&#45;&gt;type</title>
<path fill="none" stroke="#000000" d="M384.5,-170C392.6289,-170 401.1754,-170 409.6246,-170"/>
<polygon fill="#000000" stroke="#000000" points="409.8479,-173.5001 419.8479,-170 409.8478,-166.5001 409.8479,-173.5001"/>
</g>
<!-- reflect.Type.Method(0) -->
<g id="node4" class="node">
<title>reflect.Type.Method(0)</title>
<text text-anchor="middle" x="144.5" y="-122.3" font-family="Courier,monospace" font-size="14.00" fill="#000000">reflect.Type.Method(0)</text>
</g>
<!-- reflect.Type.Method(0)&#45;&gt;itable -->
<g id="edge1" class="edge">
<title>reflect.Type.Method(0)&#45;&gt;itable:func0</title>
<path fill="none" stroke="#000000" d="M233.86,-107.9421C259.4043,-104.0081 287.5785,-100.8062 314.3267,-100.1312"/>
<polygon fill="#000000" stroke="#000000" points="314.546,-103.6288 324.5,-100 314.4557,-96.6294 314.546,-103.6288"/>
</g>
<!-- reflect.Type.MethodByName(&quot;Read&quot;) -->
<g id="node5" class="node">
<title>reflect.Type.MethodByName(&quot;Read&quot;)</title>
<text text-anchor="middle" x="144.5" y="-68.3" font-family="Courier,monospace" font-size="14.00" fill="#000000">reflect.Type.MethodByName(&quot;Read&quot;)</text>
</g>
<!-- reflect.Type.MethodByName(&quot;Read&quot;)&#45;&gt;itable -->
<g id="edge2" class="edge">
<title>reflect.Type.MethodByName(&quot;Read&quot;)&#45;&gt;itable:func1</title>
<path fill="none" stroke="#000000" d="M289.3996,-76.7241C297.7484,-76.8466 306.0685,-76.9332 314.2393,-76.9739"/>
<polygon fill="#000000" stroke="#000000" points="314.4911,-80.4744 324.5,-77 314.509,-73.4745 314.4911,-80.4744"/>
</g>
<!-- reflect.Type.NumMethod() -->
<g id="node6" class="node">
<title>reflect.Type.NumMethod()</title>
<text text-anchor="middle" x="144.5" y="-14.3" font-family="Courier,monospace" font-size="14.00" fill="#000000">reflect.Type.NumMethod()</text>
</g>
<!-- reflect.Type.NumMethod()&#45;&gt;itable -->
<g id="edge3" class="edge">
<title>reflect.Type.NumMethod()&#45;&gt;itable:funcn</title>
<path fill="none" stroke="#000000" d="M252.4409,-28.3379C272.7299,-29.6734 293.9582,-30.6721 314.2841,-30.9329"/>
<polygon fill="#000000" stroke="#000000" points="314.4772,-34.4342 324.5,-31 314.5232,-27.4343 314.4772,-34.4342"/>
</g>
</g>
</svg>
