<?xml version="1.0" encoding="UTF-8" standalone="no"?>
<!DOCTYPE svg PUBLIC "-//W3C//DTD SVG 1.1//EN"
 "http://www.w3.org/Graphics/SVG/1.1/DTD/svg11.dtd">
<!-- Generated by graphviz version 2.40.1 (20161225.0304)
 -->
<!-- Title: G Pages: 1 -->
<svg width="467pt" height="449pt"
 viewBox="0.00 0.00 467.00 449.00" xmlns="http://www.w3.org/2000/svg" xmlns:xlink="http://www.w3.org/1999/xlink">
<g id="graph0" class="graph" transform="scale(1 1) rotate(0) translate(4 445)">
<title>G</title>
<polygon fill="#ffffff" stroke="transparent" points="-4,4 -4,-445 463,-445 463,4 -4,4"/>
<g id="clust2" class="cluster">
<title>cluster_0</title>
<polygon fill="#c0c0c0" stroke="#000000" points="4,-346 4,-433 82,-433 82,-346 4,-346"/>
<text text-anchor="middle" x="43" y="-417.8" font-family="Times,serif" font-size="14.00" fill="#000000">struct iface</text>
</g>
<g id="clust3" class="cluster">
<title>cluster_1</title>
<polygon fill="#c0c0c0" stroke="#000000" points="167.5,-209 167.5,-432 242.5,-432 242.5,-209 167.5,-209"/>
<text text-anchor="middle" x="205" y="-416.8" font-family="Times,serif" font-size="14.00" fill="#000000">struct itab</text>
</g>
<g id="clust4" class="cluster">
<title>cluster_3</title>
<polygon fill="#add8e6" stroke="#000000" points="328,-14 328,-215 451,-215 451,-14 328,-14"/>
<text text-anchor="middle" x="389.5" y="-199.8" font-family="Times,serif" font-size="14.00" fill="#000000">struct _type</text>
</g>
<!-- iface -->
<g id="node1" class="node">
<title>iface</title>
<polygon fill="none" stroke="#000000" points="16,-355 16,-401 70,-401 70,-355 16,-355"/>
<text text-anchor="middle" x="43" y="-385.8" font-family="Times,serif" font-size="14.00" fill="#000000">*tab</text>
<polyline fill="none" stroke="#000000" points="16,-378 70,-378 "/>
<text text-anchor="middle" x="43" y="-362.8" font-family="Times,serif" font-size="14.00" fill="#000000">*data</text>
</g>
<!-- itable -->
<g id="node2" class="node">
<title>itable</title>
<polygon fill="none" stroke="#000000" points="175.5,-217 175.5,-401 234.5,-401 234.5,-217 175.5,-217"/>
<text text-anchor="middle" x="205" y="-385.8" font-family="Times,serif" font-size="14.00" fill="#000000">*inter</text>
<polyline fill="none" stroke="#000000" points="175.5,-378 234.5,-378 "/>
<text text-anchor="middle" x="205" y="-362.8" font-family="Times,serif" font-size="14.00" fill="#000000">*_type</text>
<polyline fill="none" stroke="#000000" points="175.5,-355 234.5,-355 "/>
<text text-anchor="middle" x="205" y="-339.8" font-family="Times,serif" font-size="14.00" fill="#000000">hash</text>
<polyline fill="none" stroke="#000000" points="175.5,-332 234.5,-332 "/>
<text text-anchor="middle" x="205" y="-316.8" font-family="Times,serif" font-size="14.00" fill="#000000">...</text>
<polyline fill="none" stroke="#000000" points="175.5,-309 234.5,-309 "/>
<text text-anchor="middle" x="205" y="-293.8" font-family="Times,serif" font-size="14.00" fill="#000000">*fun[0]</text>
<polyline fill="none" stroke="#000000" points="175.5,-286 234.5,-286 "/>
<text text-anchor="middle" x="205" y="-270.8" font-family="Times,serif" font-size="14.00" fill="#000000">*fun[1]</text>
<polyline fill="none" stroke="#000000" points="175.5,-263 234.5,-263 "/>
<text text-anchor="middle" x="205" y="-247.8" font-family="Times,serif" font-size="14.00" fill="#000000">...</text>
<polyline fill="none" stroke="#000000" points="175.5,-240 234.5,-240 "/>
<text text-anchor="middle" x="205" y="-224.8" font-family="Times,serif" font-size="14.00" fill="#000000">*fun[n]</text>
</g>
<!-- iface&#45;&gt;itable -->
<g id="edge6" class="edge">
<title>iface:iftab&#45;&gt;itable:itab</title>
<path fill="none" stroke="#000000" d="M70,-390C113.0208,-390 126.2968,-390 164.67,-390"/>
<polygon fill="#000000" stroke="#000000" points="165,-393.5001 175,-390 165,-386.5001 165,-393.5001"/>
</g>
<!-- type -->
<g id="node3" class="node">
<title>type</title>
<polygon fill="none" stroke="#000000" points="336,-22.5 336,-183.5 443,-183.5 443,-22.5 336,-22.5"/>
<text text-anchor="middle" x="389.5" y="-168.3" font-family="Times,serif" font-size="14.00" fill="#000000">size</text>
<polyline fill="none" stroke="#000000" points="336,-160.5 443,-160.5 "/>
<text text-anchor="middle" x="389.5" y="-145.3" font-family="Times,serif" font-size="14.00" fill="#000000">...</text>
<polyline fill="none" stroke="#000000" points="336,-137.5 443,-137.5 "/>
<text text-anchor="middle" x="389.5" y="-122.3" font-family="Times,serif" font-size="14.00" fill="#000000">kind</text>
<polyline fill="none" stroke="#000000" points="336,-114.5 443,-114.5 "/>
<text text-anchor="middle" x="389.5" y="-99.3" font-family="Times,serif" font-size="14.00" fill="#000000">...</text>
<polyline fill="none" stroke="#000000" points="336,-91.5 443,-91.5 "/>
<text text-anchor="middle" x="389.5" y="-76.3" font-family="Times,serif" font-size="14.00" fill="#000000">str (name)</text>
<polyline fill="none" stroke="#000000" points="336,-68.5 443,-68.5 "/>
<text text-anchor="middle" x="389.5" y="-53.3" font-family="Times,serif" font-size="14.00" fill="#000000">ptr</text>
<polyline fill="none" stroke="#000000" points="336,-45.5 443,-45.5 "/>
<text text-anchor="middle" x="389.5" y="-30.3" font-family="Times,serif" font-size="14.00" fill="#000000">[]fields (structs)</text>
</g>
<!-- itable&#45;&gt;type -->
<g id="edge5" class="edge">
<title>itable:type&#45;&gt;type</title>
<path fill="none" stroke="#000000" d="M235,-367C317.3338,-367 356.6085,-270.1708 374.7809,-193.7961"/>
<polygon fill="#000000" stroke="#000000" points="378.2853,-194.1719 377.103,-183.6432 371.4615,-192.6111 378.2853,-194.1719"/>
</g>
<!-- reflect.Type.Kind() -->
<g id="node4" class="node">
<title>reflect.Type.Kind()</title>
<text text-anchor="middle" x="205" y="-122.3" font-family="Courier,monospace" font-size="14.00" fill="#000000">reflect.Type.Kind()</text>
</g>
<!-- reflect.Type.Kind()&#45;&gt;type -->
<g id="edge1" class="edge">
<title>reflect.Type.Kind()&#45;&gt;type:kind</title>
<path fill="none" stroke="#000000" d="M291.6927,-126C302.8882,-126 314.3192,-126 325.4175,-126"/>
<polygon fill="#000000" stroke="#000000" points="325.5,-129.5001 335.5,-126 325.5,-122.5001 325.5,-129.5001"/>
</g>
<!-- reflect.Type.Size() -->
<g id="node5" class="node">
<title>reflect.Type.Size()</title>
<text text-anchor="middle" x="205" y="-176.3" font-family="Courier,monospace" font-size="14.00" fill="#000000">reflect.Type.Size()</text>
</g>
<!-- reflect.Type.Size()&#45;&gt;type -->
<g id="edge2" class="edge">
<title>reflect.Type.Size()&#45;&gt;type:size</title>
<path fill="none" stroke="#000000" d="M291.6472,-173.1977C302.8468,-172.6458 314.2867,-172.2369 325.4009,-172.0756"/>
<polygon fill="#000000" stroke="#000000" points="325.5265,-175.5748 335.5,-172 325.4741,-168.575 325.5265,-175.5748"/>
</g>
<!-- reflect.Type.Name() -->
<g id="node6" class="node">
<title>reflect.Type.Name()</title>
<text text-anchor="middle" x="205" y="-68.3" font-family="Courier,monospace" font-size="14.00" fill="#000000">reflect.Type.Name()</text>
</g>
<!-- reflect.Type.Name()&#45;&gt;type -->
<g id="edge3" class="edge">
<title>reflect.Type.Name()&#45;&gt;type:name</title>
<path fill="none" stroke="#000000" d="M291.6472,-78.8023C302.8468,-79.3542 314.2867,-79.7631 325.4009,-79.9244"/>
<polygon fill="#000000" stroke="#000000" points="325.4741,-83.425 335.5,-80 325.5265,-76.4252 325.4741,-83.425"/>
</g>
<!-- reflect.Type.Field(n) -->
<g id="node7" class="node">
<title>reflect.Type.Field(n)</title>
<text text-anchor="middle" x="205" y="-14.3" font-family="Courier,monospace" font-size="14.00" fill="#000000">reflect.Type.Field(n)</text>
</g>
<!-- reflect.Type.Field(n)&#45;&gt;type -->
<g id="edge4" class="edge">
<title>reflect.Type.Field(n)&#45;&gt;type:fields</title>
<path fill="none" stroke="#000000" d="M300.3397,-32.4074C308.739,-33.1057 317.1982,-33.6161 325.4879,-33.8528"/>
<polygon fill="#000000" stroke="#000000" points="325.4496,-37.3525 335.5,-34 325.5526,-30.3532 325.4496,-37.3525"/>
</g>
</g>
</svg>
